<svg width="80" height="17" viewBox="0 0 80 17" fill="none" xmlns="http://www.w3.org/2000/svg">
<g clip-path="url(#clip0_1_5436)">
<path d="M35.5138 3.0682V0.830078H24.5369V3.0682H28.7535V15.217H31.1561V3.04797L35.5138 3.0682Z" fill="white"/>
<path d="M75.3851 16.83L74.917 15.4048C74.8634 15.2378 74.7603 15.0902 74.6207 14.9808C74.481 14.8714 74.3113 14.8052 74.133 14.7905H72.0143C71.8545 14.7905 71.3846 14.8806 71.1778 15.5574L70.7021 16.83H75.3851Z" fill="white"/>
<path d="M2.34986 16.83H7.33167L6.61166 15.3735C6.52961 15.2025 6.39911 15.0583 6.23567 14.9578C6.0877 14.869 5.92473 14.8068 5.75441 14.7739H0.218018L0.95307 16.0944C0.95307 16.0944 1.25574 16.8024 2.34986 16.83Z" fill="white"/>
<path d="M80.0001 15.4909L74.6666 1.5619L74.646 1.50185L74.599 1.39302C74.5493 1.25399 74.4655 1.12963 74.3553 1.03129C74.245 0.932956 74.1119 0.863779 73.968 0.830078H71.6206C71.4265 0.872562 71.2548 0.984734 71.1379 1.14532L65.6411 15.4909H68.2271L72.4319 4.41975L72.5295 4.25274C72.5295 4.25274 72.7173 3.75173 73.0929 4.16642L77.1456 15.4965L80.0001 15.4909Z" fill="white"/>
<path d="M55.9371 14.919L61.4415 0.844727H58.5878L54.4858 11.8643C54.4715 11.8958 54.451 11.9241 54.4256 11.9478C54.4001 11.9715 54.37 11.9901 54.3372 12.0024C54.3043 12.0147 54.2693 12.0205 54.2342 12.0195C54.199 12.0186 54.1644 12.0108 54.1323 11.9967L54.0496 11.9415L49.9232 0.844727H47.0657L52.54 14.8472C52.6378 15.0153 52.7919 15.1452 52.9762 15.2151H55.5122C55.6813 15.1639 55.8298 15.0623 55.9371 14.9245" fill="white"/>
<path d="M10.0087 10.0253C10.0087 10.0253 10.0087 10.8547 9.44477 10.1651L2.78794 1.18685C2.58114 0.830078 1.77465 0.830078 1.77465 0.830078H0V13.1738H5.52888L4.81826 11.8644C4.81826 11.8644 4.51371 11.1471 3.41959 11.1288L2.46835 11.1177V5.73482C2.59054 5.12793 2.99097 5.69252 2.99097 5.69252V5.67781L9.71924 14.8068C10.0249 15.039 10.402 15.1629 10.7889 15.1581H12.2665V0.844791H10.0106L10.0087 10.0253Z" fill="white"/>
<path d="M64.9007 15.217V0.844791H64.8913V0.830078H62.47V0.844791V15.217V15.2464H64.8913V15.217H64.9007Z" fill="white"/>
<path d="M23.4051 12.9935H16.3028V9.03591H21.5666L20.8484 7.43226C20.6849 7.07917 20.4725 6.82722 19.8126 6.79043H16.3028V3.0682H23.4051V0.830078H13.8833V15.2317H23.407L23.4051 12.9935Z" fill="white"/>
<path d="M46.1522 12.9935H39.0498V9.03591H44.3136L43.5955 7.43226C43.432 7.07917 43.2195 6.82722 42.5597 6.79043H39.0498V3.0682H46.1522V0.830078H36.6304V15.2317H46.1541L46.1522 12.9935Z" fill="white"/>
</g>
<defs>
<clipPath id="clip0_1_5436">
<rect width="80" height="16" fill="white" transform="translate(0 0.830078)"/>
</clipPath>
</defs>
</svg>
