<svg xmlns="http://www.w3.org/2000/svg" width="16" height="17" fill="none"><path fill="#fff" d="M4.36 4.142c.04.593.14 1.173.3 1.727l-.8.8a9.884 9.884 0 0 1-.507-2.527H4.36Zm6.573 8.013c.567.16 1.147.26 1.734.3v.994c-.88-.06-1.727-.234-2.534-.5l.8-.794ZM5 2.81H2.667c-.367 0-.667.3-.667.666C2 9.735 7.073 14.81 13.333 14.81c.367 0 .667-.3.667-.667v-2.327c0-.366-.3-.666-.667-.666a7.604 7.604 0 0 1-2.38-.38.683.683 0 0 0-.68.16l-1.466 1.466a10.1 10.1 0 0 1-4.394-4.393L5.88 6.535a.669.669 0 0 0 .167-.68 7.574 7.574 0 0 1-.38-2.38c0-.366-.3-.666-.667-.666Z"/></svg>