<svg xmlns="http://www.w3.org/2000/svg" width="53" height="50" fill="none"><path fill="#fff" d="M.184 45.474a6.96 6.96 0 0 1 6.96-6.96H9.44a6.96 6.96 0 0 1 6.96 6.96v3.83a.696.696 0 0 1-.696.696H.88a.696.696 0 0 1-.696-.696v-3.83ZM36.67 45.474a6.96 6.96 0 0 1 6.96-6.96h2.297a6.96 6.96 0 0 1 6.96 6.96v3.83a.696.696 0 0 1-.696.696H37.367a.696.696 0 0 1-.696-.696v-3.83Z"/><circle cx="8.291" cy="29.729" r="6.081" fill="#fff"/><circle cx="44.778" cy="29.729" r="6.081" fill="#fff"/><path fill="#fff" fill-rule="evenodd" d="M.88 0a.696.696 0 0 0-.696.696v16.175c0 .385.311.696.696.696h3.356v2.374c0 .62.75.93 1.189.492l2.865-2.866h13.495a.696.696 0 0 0 .696-.696V.696A.696.696 0 0 0 21.785 0H.88Zm2.304 5a1 1 0 0 1 1-1h12a1 1 0 1 1 0 2h-12a1 1 0 0 1-1-1Zm1 3a1 1 0 1 0 0 2h12a1 1 0 1 0 0-2h-12ZM52.19 0c.384 0 .696.312.696.696v16.175a.696.696 0 0 1-.696.696h-3.357v2.373c0 .62-.75.931-1.188.493l-2.865-2.866H31.285a.696.696 0 0 1-.696-.696V.696c0-.384.312-.696.696-.696H52.19ZM36.184 5a1 1 0 0 1 1-1h12a1 1 0 1 1 0 2h-12a1 1 0 0 1-1-1Zm-1 3a1 1 0 1 0 0 2h14a1 1 0 1 0 0-2h-14Z" clip-rule="evenodd"/></svg>