<svg xmlns="http://www.w3.org/2000/svg" width="70" height="50" fill="none"><path fill="#fff" fill-rule="evenodd" d="M.184 2.784A2.784 2.784 0 0 1 2.968 0h63.598a2.784 2.784 0 0 1 2.784 2.784v44.432A2.784 2.784 0 0 1 66.566 50H2.968a2.784 2.784 0 0 1-2.784-2.784V2.784Zm4.998 10.412c0-.384.312-.696.696-.696h57.775c.384 0 .696.312.696.696v31.108a.696.696 0 0 1-.696.696H5.878a.696.696 0 0 1-.696-.696V13.196Zm1.667-6.53a1.667 1.667 0 1 0 0-3.332 1.667 1.667 0 0 0 0 3.333ZM13.517 5a1.667 1.667 0 1 1-3.334 0 1.667 1.667 0 0 1 3.334 0Zm3.331 1.667a1.667 1.667 0 1 0 0-3.333 1.667 1.667 0 0 0 0 3.333Z" clip-rule="evenodd"/></svg>