<svg width="961" height="401" viewBox="0 0 961 401" fill="none" xmlns="http://www.w3.org/2000/svg">
<path d="M921 57.4023H836.876C830.248 57.4023 824.876 62.7749 824.876 69.4023V107.781C824.876 114.408 819.503 119.781 812.876 119.781H639.515C632.887 119.781 627.515 125.153 627.515 131.781L627.515 156.485C627.515 163.113 622.142 168.485 615.515 168.485H493.555" stroke="url(#paint0_linear_1_5287)"/>
<path d="M510.939 184.203H694.255C700.883 184.203 706.255 189.576 706.255 196.203V211.484C706.255 218.111 711.628 223.484 718.255 223.484H794" stroke="url(#paint1_linear_1_5287)"/>
<path d="M905.662 361.113H874.713C868.085 361.113 862.713 355.74 862.713 349.113V314.825C862.713 308.197 857.34 302.825 850.713 302.825H673.262C666.634 302.825 661.262 297.452 661.262 290.825V220.746C661.262 214.119 655.889 208.746 649.262 208.746H514.008" stroke="url(#paint2_linear_1_5287)"/>
<path d="M140.76 231.243H229.5C231.709 231.243 233.5 229.452 233.5 227.243V212.484C233.5 210.275 235.291 208.484 237.5 208.484H461.855" stroke="url(#paint3_linear_1_5287)"/>
<path d="M86.5625 360.09V311.757C86.5625 305.129 91.9351 299.757 98.5625 299.757H287.262C293.89 299.757 299.262 294.384 299.262 287.757V253.484C299.262 246.857 304.635 241.484 311.262 241.484H463.9" stroke="url(#paint4_linear_1_5287)"/>
<path d="M42.5898 55.3555H118.533C125.16 55.3555 130.533 60.7281 130.533 67.3555V112.892C130.533 119.519 135.906 124.892 142.533 124.892H310.781C317.408 124.892 322.781 130.265 322.781 136.892L322.781 163.983C322.781 170.611 328.154 175.983 334.781 175.983H464.922" stroke="url(#paint5_linear_1_5287)"/>
<g filter="url(#filter0_i_1_5287)">
<rect x="421" y="147.484" width="117.551" height="117.551" rx="11.7551" fill="#1E1E1E"/>
</g>
<rect x="421.98" y="148.464" width="115.592" height="115.592" rx="10.7755" stroke="white" stroke-opacity="0.12" stroke-width="1.95918"/>
<g filter="url(#filter1_ii_1_5287)">
<path d="M509.384 187.394C509.481 187.338 509.561 187.257 509.617 187.16C509.672 187.063 509.702 186.953 509.702 186.841C509.702 186.729 509.672 186.619 509.617 186.522C509.561 186.425 509.481 186.344 509.384 186.288L484.926 172.078C483.361 171.171 481.585 170.693 479.776 170.693C477.967 170.693 476.19 171.171 474.626 172.078L450.173 186.288C450.076 186.344 449.996 186.425 449.94 186.522C449.884 186.619 449.855 186.729 449.855 186.841C449.855 186.953 449.884 187.063 449.94 187.16C449.996 187.257 450.076 187.338 450.173 187.394L479.456 204.62C479.555 204.678 479.667 204.709 479.782 204.709C479.896 204.709 480.008 204.678 480.107 204.62L509.384 187.394ZM447.431 191.751C447.334 191.695 447.223 191.665 447.11 191.665C446.997 191.665 446.887 191.695 446.789 191.752C446.692 191.809 446.611 191.89 446.555 191.988C446.499 192.086 446.47 192.197 446.471 192.31V220.154C446.473 221.496 446.827 222.814 447.496 223.976C448.166 225.139 449.129 226.106 450.288 226.782L476.254 242.351C476.351 242.407 476.462 242.436 476.574 242.436C476.686 242.436 476.797 242.407 476.894 242.351C476.992 242.295 477.072 242.214 477.129 242.117C477.185 242.019 477.215 241.909 477.215 241.797V209.491C477.215 209.379 477.185 209.269 477.129 209.171C477.073 209.074 476.992 208.993 476.894 208.937L447.431 191.751ZM482.339 209.603V241.789C482.339 241.901 482.369 242.011 482.425 242.109C482.481 242.206 482.562 242.287 482.659 242.343C482.757 242.399 482.867 242.428 482.979 242.428C483.092 242.428 483.202 242.399 483.299 242.343L509.264 226.774C510.422 226.099 511.384 225.133 512.054 223.972C512.724 222.811 513.079 221.495 513.083 220.154V192.31C513.082 192.198 513.052 192.088 512.996 191.99C512.94 191.893 512.859 191.813 512.762 191.757C512.664 191.701 512.554 191.672 512.442 191.672C512.329 191.672 512.219 191.701 512.122 191.758L482.659 209.051C482.562 209.107 482.481 209.188 482.425 209.284C482.369 209.381 482.339 209.491 482.339 209.603Z" fill="#121212"/>
</g>
<path d="M509.193 226.656L509.195 226.655C510.333 225.993 511.278 225.044 511.936 223.904C512.593 222.763 512.942 221.47 512.946 220.154L512.946 192.31L512.946 192.31M509.193 226.656L512.996 191.99C513.052 192.088 513.082 192.198 513.083 192.31H512.946M509.193 226.656L483.231 242.224C483.231 242.224 483.23 242.224 483.23 242.224C483.154 242.268 483.067 242.291 482.979 242.291C482.891 242.291 482.804 242.268 482.728 242.224C482.651 242.18 482.588 242.116 482.544 242.04C482.499 241.964 482.476 241.877 482.476 241.788V209.604C482.476 209.516 482.5 209.429 482.544 209.353C482.588 209.277 482.651 209.214 482.728 209.17L482.728 209.169L512.191 191.876L512.122 191.758L512.191 191.876L512.191 191.876M509.193 226.656L512.191 191.876M512.946 192.31C512.945 192.222 512.922 192.136 512.878 192.059C512.833 191.983 512.77 191.92 512.693 191.876C512.617 191.832 512.53 191.809 512.442 191.809C512.354 191.809 512.267 191.832 512.191 191.876M512.946 192.31L512.191 191.876M509.315 187.276L509.314 187.276L480.037 204.502L480.037 204.502C479.96 204.548 479.871 204.572 479.782 204.572C479.692 204.572 479.604 204.548 479.526 204.502L479.526 204.502L450.242 187.276L450.242 187.276C450.166 187.231 450.103 187.168 450.059 187.092C450.015 187.015 449.992 186.929 449.992 186.841C449.992 186.753 450.015 186.666 450.059 186.59C450.103 186.514 450.166 186.45 450.242 186.406C450.242 186.406 450.242 186.406 450.242 186.406L474.694 172.197C476.238 171.302 477.991 170.831 479.776 170.831C481.561 170.831 483.314 171.302 484.858 172.197L509.315 186.406C509.391 186.45 509.454 186.514 509.498 186.59C509.541 186.666 509.564 186.753 509.564 186.841C509.564 186.929 509.541 187.015 509.498 187.092C509.454 187.168 509.391 187.231 509.315 187.276ZM446.608 192.31L446.608 192.309C446.607 192.22 446.63 192.133 446.674 192.056C446.718 191.979 446.781 191.915 446.858 191.871C446.935 191.826 447.022 191.803 447.11 191.802C447.199 191.802 447.286 191.825 447.363 191.87C447.363 191.87 447.363 191.87 447.363 191.87L476.825 209.056L476.826 209.056C476.902 209.1 476.966 209.164 477.01 209.24C477.054 209.317 477.078 209.403 477.078 209.492V241.796C477.078 241.885 477.054 241.972 477.01 242.048C476.966 242.124 476.902 242.188 476.826 242.232C476.749 242.276 476.662 242.299 476.574 242.299C476.486 242.299 476.4 242.276 476.323 242.232C476.323 242.232 476.323 242.232 476.323 242.232L450.359 226.664L450.357 226.663C449.218 226 448.273 225.05 447.615 223.908C446.958 222.766 446.61 221.472 446.608 220.154L446.608 192.31Z" stroke="white" stroke-width="0.274286"/>
<rect y="24.4844" width="78.3673" height="78.3673" rx="11.7551" fill="#1E1E1E"/>
<rect x="0.979592" y="25.464" width="76.4082" height="76.4082" rx="10.7755" stroke="white" stroke-opacity="0.12" stroke-width="1.95918"/>
<path d="M68 57.517C68 50.323 62.176 44.4844 55 44.4844C47.824 44.4844 42 50.323 42 57.517C42 63.8247 46.472 69.0769 52.4 70.2889V61.4267H49.8V57.517H52.4V54.2588C52.4 51.7435 54.441 49.6974 56.95 49.6974H60.2V53.6072H57.6C56.885 53.6072 56.3 54.1936 56.3 54.9104V57.517H60.2V61.4267H56.3V70.4844C62.865 69.8327 68 64.2809 68 57.517Z" fill="white"/>
<path d="M24.3364 56.4844C25.7988 56.4883 26.5411 56.4961 27.182 56.5143L27.4342 56.5234C27.7253 56.5338 28.0126 56.5468 28.3597 56.5624C29.7428 56.6274 30.6866 56.8458 31.5146 57.1669C32.3726 57.4971 33.0954 57.9442 33.8181 58.6657C34.4791 59.3156 34.9906 60.1017 35.317 60.9693C35.638 61.7974 35.8564 62.7411 35.9214 64.1256C35.937 64.4714 35.95 64.7587 35.9604 65.0512L35.9682 65.3034C35.9877 65.943 35.9955 66.6852 35.9981 68.1477L35.9994 69.1175V70.8204C36.0026 71.7686 35.9926 72.7168 35.9695 73.6648L35.9617 73.917C35.9513 74.2095 35.9383 74.4968 35.9227 74.8425C35.8577 76.227 35.6367 77.1695 35.317 77.9989C34.9916 78.867 34.48 79.6532 33.8181 80.3024C33.1681 80.9632 32.3821 81.4747 31.5146 81.8013C30.6866 82.1224 29.7428 82.3408 28.3597 82.4058C28.0513 82.4203 27.7427 82.4333 27.4342 82.4448L27.182 82.4526C26.5411 82.4708 25.7988 82.4799 24.3364 82.4825L23.3667 82.4838H21.6651C20.7164 82.487 19.7678 82.4771 18.8195 82.4539L18.5673 82.4461C18.2587 82.4344 17.9502 82.4209 17.6418 82.4058C16.2586 82.3408 15.3149 82.1224 14.4855 81.8013C13.618 81.4755 12.8323 80.9639 12.1833 80.3024C11.5217 79.6528 11.0098 78.8667 10.6832 77.9989C10.3621 77.1708 10.1437 76.227 10.0787 74.8425C10.0643 74.5341 10.0513 74.2256 10.0397 73.917L10.0332 73.6648C10.0093 72.7169 9.99846 71.7687 10.0008 70.8204V68.1477C9.99712 67.1995 10.0067 66.2513 10.0293 65.3034L10.0384 65.0512C10.0488 64.7587 10.0618 64.4714 10.0774 64.1256C10.1424 62.7411 10.3608 61.7987 10.6819 60.9693C11.0083 60.1008 11.5213 59.3144 12.1846 58.6657C12.8334 58.0047 13.6187 57.4931 14.4855 57.1669C15.3149 56.8458 16.2573 56.6274 17.6418 56.5624C17.9875 56.5468 18.2761 56.5338 18.5673 56.5234L18.8195 56.5156C19.7674 56.4925 20.7156 56.4825 21.6638 56.4857L24.3364 56.4844ZM23.0001 62.9842C21.2763 62.9842 19.623 63.669 18.4041 64.888C17.1852 66.1069 16.5004 67.7602 16.5004 69.4841C16.5004 71.2079 17.1852 72.8612 18.4041 74.0802C19.623 75.2991 21.2763 75.9839 23.0001 75.9839C24.7239 75.9839 26.3771 75.2991 27.596 74.0802C28.815 72.8612 29.4998 71.2079 29.4998 69.4841C29.4998 67.7602 28.815 66.1069 27.596 64.888C26.3771 63.669 24.7239 62.9842 23.0001 62.9842ZM23.0001 65.5842C23.5122 65.5841 24.0193 65.6849 24.4925 65.8808C24.9657 66.0767 25.3957 66.3639 25.7578 66.726C26.12 67.088 26.4074 67.5179 26.6034 67.991C26.7995 68.4642 26.9004 68.9713 26.9005 69.4834C26.9006 69.9956 26.7998 70.5027 26.6039 70.9759C26.408 71.4491 26.1208 71.8791 25.7588 72.2413C25.3967 72.6035 24.9668 72.8908 24.4937 73.0869C24.0206 73.2829 23.5135 73.3839 23.0014 73.384C21.9671 73.384 20.9752 72.9731 20.2438 72.2417C19.5125 71.5103 19.1016 70.5184 19.1016 69.4841C19.1016 68.4498 19.5125 67.4578 20.2438 66.7264C20.9752 65.995 21.9671 65.5842 23.0014 65.5842M29.826 61.0343C29.3951 61.0343 28.9818 61.2055 28.677 61.5102C28.3723 61.8149 28.2011 62.2283 28.2011 62.6592C28.2011 63.0902 28.3723 63.5035 28.677 63.8083C28.9818 64.113 29.3951 64.2842 29.826 64.2842C30.257 64.2842 30.6703 64.113 30.975 63.8083C31.2798 63.5035 31.451 63.0902 31.451 62.6592C31.451 62.2283 31.2798 61.8149 30.975 61.5102C30.6703 61.2055 30.257 61.0343 29.826 61.0343Z" fill="white"/>
<rect x="39.1836" y="316.402" width="78.3673" height="78.3673" rx="11.7551" fill="#1E1E1E"/>
<rect x="40.1632" y="317.382" width="76.4082" height="76.4082" rx="10.7755" stroke="white" stroke-opacity="0.12" stroke-width="1.95918"/>
<rect x="52" y="369.589" width="51" height="5.36842" fill="#121212"/>
<path d="M64.5273 336.484H98.5273V363.326H75.7116L64.5273 336.484Z" fill="#505050"/>
<path d="M57.3677 365.116V336.484H98.5256V368.247" stroke="white" stroke-width="2.68421" stroke-linecap="round"/>
<path d="M84.2105 369.142H103V374.958H52V369.142H71.2368" stroke="white" stroke-width="2.68421" stroke-linecap="round"/>
<rect x="123.428" y="192.973" width="62.6939" height="62.6939" rx="7.83673" fill="#1E1E1E"/>
<rect x="124.407" y="193.952" width="60.7347" height="60.7347" rx="6.85714" stroke="white" stroke-opacity="0.12" stroke-width="1.95918"/>
<path fill-rule="evenodd" clip-rule="evenodd" d="M145.596 203.484C143.61 203.484 142 205.094 142 207.08V241.837C142 243.823 143.61 245.433 145.596 245.433H163.873C165.859 245.433 167.469 243.823 167.469 241.837V207.08C167.469 205.094 165.859 203.484 163.873 203.484H145.596ZM165.372 208.278H144.098V239.14H165.372V208.278ZM150.391 206.181C150.391 205.684 150.793 205.282 151.29 205.282H158.181C158.678 205.282 159.08 205.684 159.08 206.181C159.08 206.677 158.678 207.08 158.181 207.08H151.29C150.793 207.08 150.391 206.677 150.391 206.181ZM154.884 243.935C155.877 243.935 156.682 243.13 156.682 242.137C156.682 241.144 155.877 240.339 154.884 240.339C153.891 240.339 153.086 241.144 153.086 242.137C153.086 243.13 153.891 243.935 154.884 243.935Z" fill="white"/>
<rect x="882" y="322.484" width="78.3673" height="78.3673" rx="11.7551" fill="#1E1E1E"/>
<rect x="882.98" y="323.464" width="76.4082" height="76.4082" rx="10.7755" stroke="white" stroke-opacity="0.12" stroke-width="1.95918"/>
<rect x="908.955" y="349.526" width="43.7421" height="28.4736" rx="3.71395" fill="#131111"/>
<rect x="912.67" y="357.779" width="8.25322" height="5.36459" rx="1.23798" fill="url(#paint6_linear_1_5287)"/>
<rect x="912.67" y="357.779" width="8.25322" height="5.36459" rx="1.23798" fill="url(#paint7_linear_1_5287)"/>
<path d="M945.484 353.652V367.033C945.484 367.071 945.469 367.107 945.442 367.133C945.415 367.16 945.379 367.174 945.341 367.174C945.316 367.173 945.292 367.166 945.271 367.154C945.25 367.141 945.233 367.124 945.221 367.103L937.698 354.074C937.623 353.945 937.514 353.838 937.383 353.764C937.252 353.691 937.104 353.652 936.953 353.652H933.716V369.659H941.728L940.634 368.049C940.442 367.767 940.182 367.535 939.878 367.376C939.574 367.216 939.234 367.132 938.888 367.132H936.806V357.943C936.806 357.93 936.809 357.918 936.814 357.906C936.819 357.895 936.826 357.884 936.835 357.875C936.844 357.867 936.855 357.86 936.866 357.855C936.878 357.85 936.891 357.848 936.903 357.848C936.92 357.848 936.937 357.852 936.952 357.861C936.967 357.869 936.979 357.881 936.987 357.896L944.593 370.924C944.668 371.052 944.777 371.158 944.907 371.231C945.037 371.305 945.185 371.344 945.336 371.344H948.572V353.652H945.484Z" fill="#505050"/>
<path d="M943.441 373.873H936.568C936.175 373.873 935.79 373.764 935.457 373.56C935.124 373.356 934.855 373.064 934.683 372.717L934 371.345H940.873C941.265 371.345 941.651 371.453 941.984 371.657C942.317 371.861 942.585 372.153 942.758 372.5L943.441 373.873Z" fill="#505050"/>
<path d="M892.808 388.139C891.257 388.139 890 386.882 890 385.331V338.293C890 336.742 891.257 335.484 892.808 335.484H925.103C926.654 335.484 927.911 336.742 927.911 338.293V385.331C927.911 386.882 926.654 388.139 925.103 388.139H892.808Z" fill="white"/>
<rect x="894.211" y="354.44" width="13.3391" height="29.4865" rx="2.80824" transform="rotate(-90 894.211 354.44)" fill="#505050"/>
<rect x="894.211" y="383.224" width="6.31854" height="8.42472" rx="1.40412" transform="rotate(-90 894.211 383.224)" fill="#2C2A2A"/>
<rect x="894.211" y="374.8" width="6.31854" height="8.42472" rx="1.40412" transform="rotate(-90 894.211 374.8)" fill="#2C2A2A"/>
<rect x="894.211" y="366.375" width="6.31854" height="8.42472" rx="1.40412" transform="rotate(-90 894.211 366.375)" fill="#2C2A2A"/>
<rect x="904.744" y="383.224" width="6.31854" height="8.42472" rx="1.40412" transform="rotate(-90 904.744 383.224)" fill="#2C2A2A"/>
<rect x="904.744" y="374.8" width="6.31854" height="8.42472" rx="1.40412" transform="rotate(-90 904.744 374.8)" fill="#2C2A2A"/>
<rect x="904.744" y="366.375" width="6.31854" height="8.42472" rx="1.40412" transform="rotate(-90 904.744 366.375)" fill="#2C2A2A"/>
<rect x="915.271" y="383.224" width="6.31854" height="8.42472" rx="1.40412" transform="rotate(-90 915.271 383.224)" fill="#2C2A2A"/>
<rect x="915.271" y="374.8" width="6.31854" height="8.42472" rx="1.40412" transform="rotate(-90 915.271 374.8)" fill="#2C2A2A"/>
<rect x="915.271" y="366.375" width="6.31854" height="8.42472" rx="1.40412" transform="rotate(-90 915.271 366.375)" fill="#2C2A2A"/>
<rect x="773.877" y="192.973" width="62.6939" height="62.6939" rx="7.83673" fill="#1E1E1E"/>
<rect x="774.857" y="193.952" width="60.7347" height="60.7347" rx="6.85714" stroke="white" stroke-opacity="0.12" stroke-width="1.95918"/>
<path fill-rule="evenodd" clip-rule="evenodd" d="M782 212.587C782 210.874 783.389 209.484 785.103 209.484H817.527C819.24 209.484 820.63 210.874 820.63 212.587V234.307C820.63 236.02 819.24 237.409 817.527 237.409H785.103C783.389 237.409 782 236.02 782 234.307V218.327H820.629V213.673H782V212.587ZM800.151 220.189H785.723V221.585H800.151V220.189Z" fill="white"/>
<path fill-rule="evenodd" clip-rule="evenodd" d="M809.498 228.669C808.683 229.139 808.088 229.914 807.844 230.822C807.601 231.73 807.728 232.698 808.199 233.513C808.67 234.327 809.445 234.922 810.354 235.165C811.263 235.408 812.231 235.281 813.046 234.811L815.568 233.356C815.96 233.13 816.46 233.264 816.686 233.655C816.913 234.047 816.778 234.547 816.387 234.773L813.865 236.228C812.674 236.915 811.258 237.102 809.93 236.746C808.601 236.39 807.468 235.521 806.781 234.331C806.093 233.141 805.907 231.726 806.263 230.398C806.619 229.071 807.488 227.939 808.679 227.251L811.2 225.797C811.592 225.571 812.093 225.705 812.319 226.096C812.545 226.488 812.411 226.988 812.019 227.214L809.498 228.669ZM814.683 224.732C814.457 224.341 814.591 223.84 814.983 223.614L817.504 222.16C818.695 221.472 820.111 221.286 821.44 221.642C822.768 221.998 823.901 222.866 824.589 224.057C825.277 225.247 825.463 226.662 825.107 227.989C824.751 229.317 823.882 230.449 822.691 231.136L820.169 232.591C819.777 232.817 819.277 232.683 819.05 232.292C818.824 231.9 818.958 231.4 819.35 231.174L821.872 229.719C822.687 229.249 823.281 228.474 823.525 227.566C823.769 226.657 823.641 225.689 823.171 224.875C822.7 224.061 821.925 223.466 821.016 223.223C820.107 222.979 819.138 223.107 818.323 223.577L815.802 225.032C815.41 225.258 814.909 225.124 814.683 224.732ZM811.323 231.71C811.097 231.319 811.231 230.819 811.623 230.593L819.007 226.332C819.398 226.106 819.899 226.24 820.125 226.632C820.352 227.023 820.217 227.524 819.826 227.75L812.442 232.01C812.05 232.236 811.549 232.102 811.323 231.71Z" fill="#131111"/>
<rect x="881.633" y="0.484375" width="78.3673" height="78.3673" rx="11.7551" fill="#1E1E1E"/>
<rect x="882.612" y="1.46397" width="76.4082" height="76.4082" rx="10.7755" stroke="white" stroke-opacity="0.12" stroke-width="1.95918"/>
<path fill-rule="evenodd" clip-rule="evenodd" d="M893 21.4689C893 20.3729 893.889 19.4844 894.985 19.4844H946.783C947.879 19.4844 948.768 20.3729 948.768 21.4689V57.8137C948.768 58.9098 947.879 59.7983 946.783 59.7983H894.985C893.889 59.7983 893 58.9098 893 57.8137V21.4689ZM897.031 30.0592C897.031 29.7852 897.253 29.5631 897.527 29.5631H944.239C944.513 29.5631 944.735 29.7852 944.735 30.0593V55.271C944.735 55.545 944.513 55.7672 944.239 55.7672H897.527C897.253 55.7672 897.031 55.545 897.031 55.271V30.0592ZM898.374 24.8598C899.117 24.8598 899.718 24.2582 899.718 23.516C899.718 22.7739 899.117 22.1722 898.374 22.1722C897.632 22.1722 897.031 22.7739 897.031 23.516C897.031 24.2582 897.632 24.8598 898.374 24.8598ZM903.75 23.516C903.75 24.2582 903.149 24.8598 902.406 24.8598C901.664 24.8598 901.063 24.2582 901.063 23.516C901.063 22.7739 901.664 22.1722 902.406 22.1722C903.149 22.1722 903.75 22.7739 903.75 23.516ZM906.437 24.8598C907.179 24.8598 907.781 24.2582 907.781 23.516C907.781 22.7739 907.179 22.1722 906.437 22.1722C905.695 22.1722 905.093 22.7739 905.093 23.516C905.093 24.2582 905.695 24.8598 906.437 24.8598Z" fill="white"/>
<path d="M916.456 49.0418C916.215 49.0421 915.983 48.9535 915.802 48.7926L909.75 43.4252C909.643 43.3307 909.558 43.2143 909.499 43.0837C909.441 42.9532 909.411 42.8114 909.411 42.668C909.411 42.5246 909.441 42.3829 909.499 42.2523C909.558 42.1217 909.643 42.0053 909.75 41.9108L915.802 36.5434C916 36.3676 916.259 36.2789 916.522 36.2966C916.785 36.3144 917.03 36.4372 917.203 36.6381C917.377 36.8389 917.464 37.1014 917.447 37.3678C917.429 37.6341 917.308 37.8825 917.11 38.0583L911.911 42.668L917.11 47.2778C917.262 47.4126 917.37 47.5912 917.419 47.7899C917.468 47.9885 917.457 48.1977 917.385 48.3894C917.314 48.5811 917.187 48.7463 917.021 48.8629C916.855 48.9795 916.658 49.0419 916.456 49.0418ZM925.534 49.0418C925.332 49.042 925.135 48.9797 924.969 48.8631C924.802 48.7466 924.675 48.5814 924.604 48.3896C924.533 48.1979 924.521 47.9887 924.57 47.79C924.62 47.5913 924.728 47.4126 924.88 47.2778L930.079 42.668L924.88 38.0583C924.682 37.8825 924.561 37.6341 924.543 37.3678C924.526 37.1014 924.614 36.8389 924.787 36.6381C924.96 36.4372 925.206 36.3144 925.468 36.2966C925.731 36.2789 925.99 36.3676 926.188 36.5434L932.241 41.9108C932.347 42.0053 932.433 42.1217 932.491 42.2523C932.549 42.3829 932.58 42.5246 932.58 42.668C932.58 42.8114 932.549 42.9532 932.491 43.0837C932.433 43.2143 932.347 43.3307 932.241 43.4252L926.188 48.7926C926.008 48.9537 925.775 49.0423 925.534 49.0418ZM918.725 51.3421C918.571 51.3421 918.418 51.3055 918.28 51.2352C918.142 51.1648 918.022 51.0628 917.929 50.9371C917.837 50.8114 917.775 50.6656 917.748 50.5113C917.721 50.357 917.73 50.1984 917.774 50.0482L922.313 34.7127C922.347 34.5826 922.407 34.4608 922.489 34.3544C922.57 34.248 922.672 34.1593 922.788 34.0936C922.904 34.0278 923.032 33.9863 923.164 33.9714C923.296 33.9566 923.429 33.9688 923.557 34.0073C923.684 34.0458 923.802 34.1098 923.905 34.1955C924.007 34.2813 924.092 34.387 924.153 34.5064C924.215 34.6258 924.252 34.7565 924.263 34.8907C924.273 35.0249 924.257 35.16 924.216 35.2878L919.676 50.6233C919.615 50.8309 919.49 51.0129 919.318 51.1425C919.147 51.272 918.939 51.342 918.725 51.3421Z" fill="white"/>
<defs>
<filter id="filter0_i_1_5287" x="421" y="141.607" width="117.551" height="123.429" filterUnits="userSpaceOnUse" color-interpolation-filters="sRGB">
<feFlood flood-opacity="0" result="BackgroundImageFix"/>
<feBlend mode="normal" in="SourceGraphic" in2="BackgroundImageFix" result="shape"/>
<feColorMatrix in="SourceAlpha" type="matrix" values="0 0 0 0 0 0 0 0 0 0 0 0 0 0 0 0 0 0 127 0" result="hardAlpha"/>
<feOffset dy="-5.87755"/>
<feGaussianBlur stdDeviation="5.58367"/>
<feComposite in2="hardAlpha" operator="arithmetic" k2="-1" k3="1"/>
<feColorMatrix type="matrix" values="0 0 0 0 1 0 0 0 0 1 0 0 0 0 1 0 0 0 0.25 0"/>
<feBlend mode="normal" in2="shape" result="effect1_innerShadow_1_5287"/>
</filter>
<filter id="filter1_ii_1_5287" x="443.268" y="170.693" width="73.0173" height="72.3837" filterUnits="userSpaceOnUse" color-interpolation-filters="sRGB">
<feFlood flood-opacity="0" result="BackgroundImageFix"/>
<feBlend mode="normal" in="SourceGraphic" in2="BackgroundImageFix" result="shape"/>
<feColorMatrix in="SourceAlpha" type="matrix" values="0 0 0 0 0 0 0 0 0 0 0 0 0 0 0 0 0 0 127 0" result="hardAlpha"/>
<feOffset dx="3.2025" dy="0.6405"/>
<feGaussianBlur stdDeviation="1.76138"/>
<feComposite in2="hardAlpha" operator="arithmetic" k2="-1" k3="1"/>
<feColorMatrix type="matrix" values="0 0 0 0 1 0 0 0 0 1 0 0 0 0 1 0 0 0 0.32 0"/>
<feBlend mode="normal" in2="shape" result="effect1_innerShadow_1_5287"/>
<feColorMatrix in="SourceAlpha" type="matrix" values="0 0 0 0 0 0 0 0 0 0 0 0 0 0 0 0 0 0 127 0" result="hardAlpha"/>
<feOffset dx="-3.2025" dy="0.6405"/>
<feGaussianBlur stdDeviation="1.76138"/>
<feComposite in2="hardAlpha" operator="arithmetic" k2="-1" k3="1"/>
<feColorMatrix type="matrix" values="0 0 0 0 1 0 0 0 0 1 0 0 0 0 1 0 0 0 0.32 0"/>
<feBlend mode="normal" in2="effect1_innerShadow_1_5287" result="effect2_innerShadow_1_5287"/>
</filter>
<linearGradient id="paint0_linear_1_5287" x1="493.555" y1="168.485" x2="730.529" y2="-106.65" gradientUnits="userSpaceOnUse">
<stop stop-color="#187AC9"/>
<stop offset="1" stop-color="#C5D6E3"/>
</linearGradient>
<linearGradient id="paint1_linear_1_5287" x1="510.939" y1="223.484" x2="575.273" y2="83.605" gradientUnits="userSpaceOnUse">
<stop stop-color="#187AC9"/>
<stop offset="1" stop-color="#C5D6E3"/>
</linearGradient>
<linearGradient id="paint2_linear_1_5287" x1="514.008" y1="361.113" x2="832.347" y2="114.216" gradientUnits="userSpaceOnUse">
<stop stop-color="#187AC9"/>
<stop offset="1" stop-color="#C5D6E3"/>
</linearGradient>
<linearGradient id="paint3_linear_1_5287" x1="140.76" y1="231.243" x2="162.618" y2="138.191" gradientUnits="userSpaceOnUse">
<stop stop-color="#187AC9"/>
<stop offset="1" stop-color="#C5D6E3"/>
</linearGradient>
<linearGradient id="paint4_linear_1_5287" x1="86.5625" y1="360.09" x2="342.197" y2="114.7" gradientUnits="userSpaceOnUse">
<stop stop-color="#187AC9"/>
<stop offset="1" stop-color="#C5D6E3"/>
</linearGradient>
<linearGradient id="paint5_linear_1_5287" x1="42.5899" y1="175.983" x2="302.41" y2="-98.4839" gradientUnits="userSpaceOnUse">
<stop stop-color="#187AC9"/>
<stop offset="1" stop-color="#C5D6E3"/>
</linearGradient>
<linearGradient id="paint6_linear_1_5287" x1="916.641" y1="357.779" x2="920.604" y2="363.149" gradientUnits="userSpaceOnUse">
<stop stop-color="#EDECEC"/>
<stop offset="1" stop-color="#C4C4C4"/>
</linearGradient>
<linearGradient id="paint7_linear_1_5287" x1="916.641" y1="357.779" x2="920.604" y2="363.149" gradientUnits="userSpaceOnUse">
<stop stop-color="#6D6D6D"/>
<stop offset="1" stop-color="#131111"/>
</linearGradient>
</defs>
</svg>
