<svg width="312" height="559" viewBox="0 0 312 559" fill="none" xmlns="http://www.w3.org/2000/svg">
<path d="M268 512.684V471.64C268 466.488 263.823 462.31 258.67 462.31H228.475C223.323 462.31 219.145 458.133 219.145 452.98V368.215C219.145 363.062 214.968 358.885 209.815 358.885L190.33 358.885C185.177 358.885 181 354.707 181 349.555V288.684" stroke="url(#paint0_linear_1_6223)" stroke-width="0.7775"/>
<path d="M169 297.684V390.476C169 395.628 164.823 399.806 159.67 399.806H148.33C143.177 399.806 139 403.983 139 409.136V445.684" stroke="url(#paint1_linear_1_6223)" stroke-width="0.7775"/>
<path d="M32 504.683V491.423C32 486.27 36.1772 482.093 41.33 482.093H67.811C72.9638 482.093 77.1409 477.916 77.1409 472.763V385.465C77.1409 380.312 81.3181 376.135 86.4709 376.135H140.67C145.823 376.135 150 371.958 150 366.805V298.683" stroke="url(#paint2_linear_1_6223)" stroke-width="0.7775"/>
<path d="M133 93.6831V139.962C133 141.68 134.392 143.072 136.11 143.072H146.89C148.608 143.072 150 144.465 150 146.182L150 264.683" stroke="url(#paint3_linear_1_6223)" stroke-width="0.7775"/>
<path d="M32 64.6831H69.978C75.1308 64.6831 79.308 68.8603 79.308 74.0131V168.654C79.308 173.807 83.4851 177.984 88.638 177.984H115.67C120.823 177.984 125 182.161 125 187.314V265.683" stroke="url(#paint4_linear_1_6223)" stroke-width="0.7775"/>
<path d="M269 41.6831V78.9972C269 84.15 264.823 88.3272 259.67 88.3272H224.72C219.567 88.3272 215.39 92.5044 215.39 97.6572V180.963C215.39 186.116 211.213 190.293 206.06 190.293L185.33 190.293C180.177 190.293 176 194.47 176 199.623V265.683" stroke="url(#paint5_linear_1_6223)" stroke-width="0.7775"/>
<g filter="url(#filter0_i_1_6223)">
<rect x="197.708" y="232.011" width="91.3959" height="91.3959" rx="9.13959" transform="rotate(90 197.708 232.011)" fill="#1E1E1E"/>
</g>
<rect x="196.946" y="232.772" width="89.8727" height="89.8727" rx="8.37796" transform="rotate(90 196.946 232.772)" stroke="white" stroke-opacity="0.12" stroke-width="1.52327"/>
<g filter="url(#filter1_ii_1_6223)">
<path d="M174.792 262.804C174.867 262.76 174.93 262.698 174.973 262.622C175.016 262.547 175.039 262.461 175.039 262.374C175.039 262.287 175.016 262.201 174.973 262.126C174.93 262.051 174.867 261.988 174.792 261.944L155.776 250.896C154.56 250.191 153.178 249.819 151.772 249.819C150.366 249.819 148.984 250.191 147.767 250.896L128.755 261.944C128.68 261.988 128.618 262.051 128.575 262.126C128.531 262.201 128.508 262.287 128.508 262.374C128.508 262.461 128.531 262.547 128.575 262.622C128.618 262.698 128.68 262.76 128.755 262.804L151.524 276.198C151.6 276.243 151.687 276.266 151.776 276.266C151.865 276.266 151.952 276.243 152.029 276.198L174.792 262.804ZM126.624 266.192C126.548 266.148 126.462 266.125 126.374 266.125C126.287 266.125 126.2 266.148 126.125 266.193C126.049 266.237 125.986 266.3 125.943 266.376C125.899 266.452 125.877 266.539 125.877 266.626V288.275C125.879 289.318 126.154 290.343 126.675 291.247C127.195 292.151 127.944 292.903 128.845 293.428L149.034 305.533C149.109 305.577 149.195 305.6 149.282 305.6C149.37 305.6 149.456 305.577 149.531 305.533C149.607 305.489 149.67 305.427 149.714 305.351C149.757 305.275 149.78 305.189 149.781 305.102V279.985C149.78 279.897 149.757 279.812 149.714 279.736C149.67 279.66 149.607 279.598 149.532 279.554L126.624 266.192ZM153.764 280.072V305.096C153.765 305.183 153.788 305.269 153.831 305.345C153.875 305.42 153.938 305.483 154.014 305.527C154.089 305.57 154.175 305.593 154.263 305.593C154.35 305.593 154.436 305.57 154.511 305.527L174.699 293.422C175.599 292.897 176.347 292.146 176.868 291.244C177.389 290.341 177.665 289.317 177.668 288.275V266.626C177.668 266.539 177.644 266.453 177.601 266.378C177.557 266.302 177.494 266.24 177.418 266.196C177.343 266.153 177.257 266.13 177.17 266.13C177.082 266.13 176.997 266.153 176.921 266.197L154.013 279.642C153.938 279.686 153.875 279.749 153.832 279.824C153.788 279.899 153.765 279.985 153.764 280.072Z" fill="#121212"/>
</g>
<path d="M174.738 262.712L174.738 262.712C174.797 262.678 174.846 262.628 174.88 262.569C174.915 262.51 174.932 262.442 174.932 262.374C174.932 262.306 174.915 262.238 174.88 262.179C174.846 262.12 174.798 262.071 174.739 262.036L174.738 262.712ZM174.738 262.712L151.975 276.106L151.975 276.106C151.915 276.141 151.846 276.16 151.776 276.16C151.706 276.16 151.638 276.141 151.578 276.106L151.578 276.106L128.81 262.712L128.809 262.712M174.738 262.712L128.809 262.712M128.809 262.712C128.75 262.678 128.701 262.628 128.667 262.569C128.633 262.51 128.615 262.442 128.615 262.374C128.615 262.306 128.633 262.238 128.667 262.179C128.701 262.12 128.75 262.07 128.809 262.036C128.809 262.036 128.809 262.036 128.809 262.036L147.821 250.988C149.021 250.292 150.384 249.926 151.772 249.926C153.159 249.926 154.522 250.292 155.723 250.988L128.809 262.712ZM155.723 250.988L174.738 262.036L155.723 250.988ZM125.984 266.626L125.984 266.626C125.983 266.557 126.001 266.489 126.035 266.429C126.069 266.369 126.119 266.319 126.178 266.285C126.238 266.25 126.306 266.232 126.374 266.232C126.443 266.232 126.511 266.25 126.571 266.284C126.571 266.284 126.571 266.284 126.571 266.284L149.478 279.646L149.478 279.646C149.538 279.681 149.587 279.73 149.621 279.789C149.656 279.849 149.674 279.916 149.674 279.985V305.102C149.674 305.171 149.656 305.238 149.621 305.298C149.587 305.357 149.538 305.406 149.478 305.441C149.419 305.475 149.351 305.493 149.282 305.493C149.214 305.493 149.147 305.475 149.088 305.441C149.087 305.441 149.087 305.441 149.087 305.441L128.9 293.337L128.899 293.336C128.013 292.82 127.278 292.082 126.767 291.194C126.256 290.306 125.986 289.3 125.984 288.275L125.984 266.626ZM174.645 293.33L174.644 293.33L154.458 305.434C154.458 305.434 154.458 305.435 154.457 305.435C154.398 305.469 154.331 305.487 154.263 305.487C154.194 305.487 154.126 305.469 154.067 305.434C154.007 305.4 153.958 305.351 153.924 305.291C153.889 305.232 153.871 305.164 153.871 305.096V280.072C153.871 280.004 153.89 279.937 153.924 279.877C153.958 279.818 154.007 279.769 154.067 279.735L154.067 279.734L176.974 266.289C176.974 266.289 176.975 266.289 176.975 266.289C177.034 266.255 177.101 266.237 177.17 266.237C177.238 266.237 177.306 266.255 177.365 266.289C177.425 266.323 177.474 266.372 177.508 266.431C177.543 266.491 177.561 266.558 177.561 266.627V288.275C177.558 289.298 177.288 290.304 176.776 291.19C176.264 292.077 175.53 292.815 174.645 293.33Z" stroke="white" stroke-width="0.213257"/>
<rect x="293.34" y="0.683105" width="60.9306" height="60.9306" rx="9.13959" transform="rotate(90 293.34 0.683105)" fill="#1E1E1E"/>
<rect x="292.578" y="1.44474" width="59.4074" height="59.4074" rx="8.37796" transform="rotate(90 292.578 1.44474)" stroke="white" stroke-opacity="0.12" stroke-width="1.52327"/>
<path d="M285.095 25.8164C285.095 20.2231 280.567 15.6836 274.987 15.6836C269.408 15.6836 264.88 20.2231 264.88 25.8164C264.88 30.7207 268.357 34.8042 272.966 35.7466V28.8563H270.944V25.8164H272.966V23.2832C272.966 21.3276 274.553 19.7367 276.504 19.7367H279.03V22.7766H277.009C276.453 22.7766 275.998 23.2326 275.998 23.7899V25.8164H279.03V28.8563H275.998V35.8986C281.102 35.392 285.095 31.0754 285.095 25.8164Z" fill="white"/>
<path d="M251.147 25.0137C252.284 25.0167 252.861 25.0228 253.359 25.0369L253.555 25.044C253.781 25.0521 254.005 25.0622 254.275 25.0743C255.35 25.1249 256.084 25.2947 256.728 25.5443C257.395 25.801 257.957 26.1487 258.519 26.7097C259.033 27.2149 259.43 27.8261 259.684 28.5007C259.934 29.1445 260.103 29.8783 260.154 30.9547C260.166 31.2236 260.176 31.4469 260.184 31.6744L260.19 31.8704C260.205 32.3677 260.212 32.9448 260.214 34.0819L260.215 34.8359V36.16C260.217 36.8972 260.209 37.6344 260.191 38.3714L260.185 38.5675C260.177 38.7949 260.167 39.0183 260.155 39.2871C260.104 40.3636 259.933 41.0963 259.684 41.7412C259.431 42.4161 259.033 43.0275 258.519 43.5322C258.013 44.046 257.402 44.4436 256.728 44.6976C256.084 44.9472 255.35 45.117 254.275 45.1676C254.035 45.1788 253.795 45.189 253.555 45.1979L253.359 45.2039C252.861 45.2181 252.284 45.2252 251.147 45.2272L250.393 45.2282H249.07C248.332 45.2307 247.594 45.223 246.857 45.205L246.661 45.1989C246.421 45.1898 246.181 45.1794 245.941 45.1676C244.866 45.117 244.132 44.9472 243.487 44.6976C242.813 44.4443 242.202 44.0465 241.698 43.5322C241.183 43.0271 240.785 42.4159 240.531 41.7412C240.282 41.0974 240.112 40.3636 240.061 39.2871C240.05 39.0473 240.04 38.8074 240.031 38.5675L240.026 38.3714C240.007 37.6344 239.999 36.8972 240.001 36.16V34.0819C239.998 33.3447 240.005 32.6075 240.023 31.8704L240.03 31.6744C240.038 31.4469 240.048 31.2236 240.06 30.9547C240.111 29.8783 240.281 29.1455 240.53 28.5007C240.784 27.8254 241.183 27.214 241.699 26.7097C242.203 26.1957 242.814 25.798 243.487 25.5443C244.132 25.2947 244.865 25.1249 245.941 25.0743C246.21 25.0622 246.435 25.0521 246.661 25.044L246.857 25.0379C247.594 25.02 248.331 25.0122 249.069 25.0147L251.147 25.0137ZM250.108 30.0673C248.767 30.0673 247.482 30.5997 246.534 31.5475C245.586 32.4952 245.054 33.7806 245.054 35.1209C245.054 36.4612 245.586 37.7467 246.534 38.6944C247.482 39.6421 248.767 40.1746 250.108 40.1746C251.448 40.1746 252.733 39.6421 253.681 38.6944C254.629 37.7467 255.161 36.4612 255.161 35.1209C255.161 33.7806 254.629 32.4952 253.681 31.5475C252.733 30.5997 251.448 30.0673 250.108 30.0673ZM250.108 32.0888C250.506 32.0887 250.9 32.1671 251.268 32.3194C251.636 32.4717 251.97 32.695 252.252 32.9765C252.533 33.258 252.757 33.5922 252.909 33.9601C253.062 34.328 253.14 34.7222 253.14 35.1204C253.14 35.5186 253.062 35.9129 252.91 36.2808C252.757 36.6487 252.534 36.983 252.252 37.2647C251.971 37.5463 251.637 37.7697 251.269 37.9221C250.901 38.0746 250.507 38.153 250.109 38.1531C249.304 38.1531 248.533 37.8337 247.965 37.265C247.396 36.6964 247.076 35.9251 247.076 35.1209C247.076 34.3168 247.396 33.5455 247.965 32.9769C248.533 32.4082 249.304 32.0888 250.109 32.0888M255.415 28.5512C255.08 28.5512 254.758 28.6843 254.521 28.9213C254.284 29.1582 254.151 29.4795 254.151 29.8146C254.151 30.1497 254.284 30.4711 254.521 30.708C254.758 30.9449 255.08 31.078 255.415 31.078C255.75 31.078 256.071 30.9449 256.308 30.708C256.545 30.4711 256.678 30.1497 256.678 29.8146C256.678 29.4795 256.545 29.1582 256.308 28.9213C256.071 28.6843 255.75 28.5512 255.415 28.5512Z" fill="white"/>
<rect x="66.3738" y="31.1484" width="60.9306" height="60.9306" rx="9.13959" transform="rotate(90 66.3738 31.1484)" fill="#1E1E1E"/>
<rect x="65.6121" y="31.9101" width="59.4074" height="59.4074" rx="8.37796" transform="rotate(90 65.6121 31.9101)" stroke="white" stroke-opacity="0.12" stroke-width="1.52327"/>
<rect x="15.9773" y="71.7207" width="39.6525" height="4.17395" fill="#121212"/>
<path d="M25.7174 45.981H52.1524V66.8507H34.4131L25.7174 45.981Z" fill="#505050"/>
<path d="M20.1509 68.242V45.981H52.1511V70.6768" stroke="white" stroke-width="2.08697" stroke-linecap="round"/>
<path d="M41.021 71.3721H55.6298V75.8938H15.9773V71.3721H30.9339" stroke="white" stroke-width="2.08697" stroke-linecap="round"/>
<rect x="157.745" y="70.6831" width="48.7445" height="48.7445" rx="6.09306" transform="rotate(90 157.745 70.6831)" fill="#1E1E1E"/>
<rect x="156.983" y="71.4447" width="47.2212" height="47.2212" rx="5.33143" transform="rotate(90 156.983 71.4447)" stroke="white" stroke-opacity="0.12" stroke-width="1.52327"/>
<path fill-rule="evenodd" clip-rule="evenodd" d="M126.158 78.7168C124.615 78.7168 123.363 79.9684 123.363 81.5124V108.536C123.363 110.08 124.615 111.332 126.158 111.332H140.369C141.913 111.332 143.165 110.08 143.165 108.536V81.5124C143.165 79.9684 141.913 78.7168 140.369 78.7168H126.158ZM141.535 82.4445H124.994V106.44H141.535V82.4445ZM129.886 80.8134C129.886 80.4275 130.199 80.1146 130.585 80.1146H135.943C136.329 80.1146 136.642 80.4275 136.642 80.8134C136.642 81.1994 136.329 81.5123 135.943 81.5123H130.585C130.199 81.5123 129.886 81.1994 129.886 80.8134ZM133.38 110.166C134.152 110.166 134.778 109.541 134.778 108.769C134.778 107.997 134.152 107.371 133.38 107.371C132.608 107.371 131.982 107.997 131.982 108.769C131.982 109.541 132.608 110.166 133.38 110.166Z" fill="white"/>
<rect x="61.645" y="497.749" width="60.9306" height="60.9306" rx="9.13959" transform="rotate(90 61.645 497.749)" fill="#1E1E1E"/>
<rect x="60.8834" y="498.511" width="59.4074" height="59.4074" rx="8.37796" transform="rotate(90 60.8834 498.511)" stroke="white" stroke-opacity="0.12" stroke-width="1.52327"/>
<rect x="21.4313" y="518.789" width="34.0095" height="22.1382" rx="2.8876" fill="#131111"/>
<rect x="24.3187" y="525.206" width="6.41688" height="4.17097" rx="0.962532" fill="url(#paint6_linear_1_6223)"/>
<rect x="24.3187" y="525.206" width="6.41688" height="4.17097" rx="0.962532" fill="url(#paint7_linear_1_6223)"/>
<path d="M49.8331 521.997V532.401C49.8331 532.43 49.8213 532.458 49.8003 532.478C49.7793 532.499 49.7509 532.511 49.7212 532.511C49.7022 532.51 49.6837 532.504 49.6674 532.494C49.6511 532.485 49.6376 532.471 49.628 532.455L43.7792 522.325C43.7206 522.225 43.6361 522.142 43.5343 522.084C43.4325 522.027 43.317 521.997 43.1996 521.997H40.6833V534.442H46.9124L46.0615 533.19C45.9126 532.971 45.7108 532.791 45.4741 532.667C45.2374 532.543 44.9731 532.478 44.7046 532.478H43.0859V525.333C43.0859 525.323 43.0878 525.314 43.0916 525.305C43.0954 525.296 43.101 525.287 43.108 525.281C43.115 525.274 43.1233 525.268 43.1325 525.265C43.1416 525.261 43.1514 525.259 43.1614 525.259C43.1746 525.259 43.1875 525.263 43.199 525.269C43.2104 525.276 43.2199 525.285 43.2266 525.296L49.1397 535.426C49.1984 535.525 49.2827 535.608 49.3841 535.665C49.4855 535.722 49.6005 535.752 49.7175 535.752H52.2337V521.997H49.8331Z" fill="#505050"/>
<path d="M48.2444 537.718H42.9007C42.5952 537.718 42.2958 537.634 42.0367 537.475C41.7775 537.317 41.569 537.09 41.4348 536.82L40.9036 535.753H46.2473C46.5528 535.753 46.8522 535.837 47.1113 535.996C47.3705 536.155 47.579 536.382 47.7132 536.651L48.2444 537.718Z" fill="#505050"/>
<path d="M8.87762 548.812C7.67176 548.812 6.69421 547.835 6.69421 546.629L6.69421 510.057C6.69421 508.851 7.67176 507.874 8.87762 507.874H33.9868C35.1926 507.874 36.1702 508.851 36.1702 510.057V546.629C36.1702 547.835 35.1926 548.812 33.9868 548.812H8.87762Z" fill="white"/>
<rect x="9.96851" y="522.61" width="10.3712" height="22.9258" rx="2.18341" transform="rotate(-90 9.96851 522.61)" fill="#505050"/>
<rect x="9.96851" y="544.99" width="4.91266" height="6.55022" rx="1.0917" transform="rotate(-90 9.96851 544.99)" fill="#2C2A2A"/>
<rect x="9.96851" y="538.441" width="4.91266" height="6.55022" rx="1.0917" transform="rotate(-90 9.96851 538.441)" fill="#2C2A2A"/>
<rect x="9.96851" y="531.889" width="4.91266" height="6.55022" rx="1.0917" transform="rotate(-90 9.96851 531.889)" fill="#2C2A2A"/>
<rect x="18.1576" y="544.99" width="4.91266" height="6.55022" rx="1.0917" transform="rotate(-90 18.1576 544.99)" fill="#2C2A2A"/>
<rect x="18.1576" y="538.441" width="4.91266" height="6.55022" rx="1.0917" transform="rotate(-90 18.1576 538.441)" fill="#2C2A2A"/>
<rect x="18.1576" y="531.889" width="4.91266" height="6.55022" rx="1.0917" transform="rotate(-90 18.1576 531.889)" fill="#2C2A2A"/>
<rect x="26.3434" y="544.99" width="4.91266" height="6.55022" rx="1.0917" transform="rotate(-90 26.3434 544.99)" fill="#2C2A2A"/>
<rect x="26.3434" y="538.441" width="4.91266" height="6.55022" rx="1.0917" transform="rotate(-90 26.3434 538.441)" fill="#2C2A2A"/>
<rect x="26.3434" y="531.889" width="4.91266" height="6.55022" rx="1.0917" transform="rotate(-90 26.3434 531.889)" fill="#2C2A2A"/>
<rect x="162.34" y="425.683" width="48.7445" height="48.7445" rx="6.09306" transform="rotate(90 162.34 425.683)" fill="#1E1E1E"/>
<rect x="161.579" y="426.445" width="47.2212" height="47.2212" rx="5.33143" transform="rotate(90 161.579 426.445)" stroke="white" stroke-opacity="0.12" stroke-width="1.52327"/>
<path fill-rule="evenodd" clip-rule="evenodd" d="M120.535 440.57C120.535 439.238 121.615 438.158 122.947 438.158H148.157C149.489 438.158 150.569 439.238 150.569 440.57V457.457C150.569 458.789 149.489 459.869 148.157 459.869H122.947C121.615 459.869 120.535 458.789 120.535 457.457V445.034H150.569V441.415H120.535V440.57ZM134.648 446.48H123.43V447.565H134.648V446.48Z" fill="white"/>
<path fill-rule="evenodd" clip-rule="evenodd" d="M141.913 453.076C141.279 453.441 140.817 454.043 140.627 454.75C140.438 455.456 140.537 456.208 140.903 456.842C141.269 457.475 141.871 457.937 142.578 458.126C143.285 458.316 144.038 458.216 144.672 457.851L146.632 456.72C146.937 456.544 147.326 456.648 147.502 456.953C147.678 457.257 147.574 457.646 147.269 457.822L145.309 458.953C144.382 459.487 143.282 459.632 142.249 459.355C141.216 459.079 140.335 458.403 139.8 457.478C139.266 456.552 139.121 455.453 139.397 454.42C139.674 453.388 140.35 452.508 141.276 451.974L143.237 450.842C143.541 450.667 143.931 450.771 144.106 451.075C144.282 451.38 144.178 451.769 143.873 451.944L141.913 453.076ZM145.944 450.015C145.769 449.711 145.873 449.321 146.177 449.146L148.138 448.015C149.064 447.48 150.165 447.336 151.198 447.612C152.231 447.889 153.111 448.564 153.646 449.49C154.181 450.415 154.326 451.515 154.049 452.547C153.772 453.58 153.096 454.46 152.17 454.994L150.21 456.125C149.905 456.301 149.516 456.197 149.34 455.892C149.164 455.588 149.268 455.199 149.573 455.023L151.533 453.892C152.167 453.526 152.63 452.924 152.819 452.218C153.008 451.512 152.909 450.759 152.543 450.126C152.177 449.493 151.575 449.03 150.868 448.841C150.161 448.652 149.408 448.751 148.775 449.117L146.814 450.248C146.51 450.423 146.12 450.319 145.944 450.015ZM143.332 455.44C143.156 455.136 143.26 454.747 143.565 454.571L149.306 451.259C149.611 451.083 150 451.187 150.176 451.492C150.352 451.796 150.247 452.185 149.943 452.361L144.202 455.673C143.897 455.849 143.508 455.745 143.332 455.44Z" fill="#131111"/>
<rect x="298.931" y="487.684" width="60.9306" height="60.9306" rx="9.13959" transform="rotate(90 298.931 487.684)" fill="#1E1E1E"/>
<rect x="298.169" y="488.445" width="59.4074" height="59.4074" rx="8.37796" transform="rotate(90 298.169 488.445)" stroke="white" stroke-opacity="0.12" stroke-width="1.52327"/>
<path fill-rule="evenodd" clip-rule="evenodd" d="M246.806 504.074C246.806 503.222 247.497 502.531 248.349 502.531H288.623C289.475 502.531 290.166 503.222 290.166 504.074V532.332C290.166 533.184 289.475 533.875 288.623 533.875H248.349C247.497 533.875 246.806 533.184 246.806 532.332V504.074ZM249.94 510.753C249.94 510.54 250.113 510.367 250.326 510.367H286.645C286.858 510.367 287.031 510.54 287.031 510.753V530.355C287.031 530.568 286.858 530.74 286.645 530.74H250.326C250.113 530.74 249.94 530.568 249.94 530.355V510.753ZM250.985 506.71C251.562 506.71 252.03 506.242 252.03 505.665C252.03 505.088 251.562 504.62 250.985 504.62C250.408 504.62 249.94 505.088 249.94 505.665C249.94 506.242 250.408 506.71 250.985 506.71ZM255.165 505.665C255.165 506.242 254.697 506.71 254.12 506.71C253.543 506.71 253.075 506.242 253.075 505.665C253.075 505.088 253.543 504.62 254.12 504.62C254.697 504.62 255.165 505.088 255.165 505.665ZM257.255 506.71C257.832 506.71 258.299 506.242 258.299 505.665C258.299 505.088 257.832 504.62 257.255 504.62C256.678 504.62 256.21 505.088 256.21 505.665C256.21 506.242 256.678 506.71 257.255 506.71Z" fill="white"/>
<path d="M265.044 525.511C264.857 525.511 264.676 525.442 264.536 525.317L259.83 521.144C259.747 521.07 259.681 520.98 259.635 520.878C259.59 520.777 259.566 520.666 259.566 520.555C259.566 520.443 259.59 520.333 259.635 520.232C259.681 520.13 259.747 520.04 259.83 519.966L264.536 515.793C264.69 515.656 264.891 515.587 265.095 515.601C265.3 515.615 265.49 515.71 265.625 515.867C265.76 516.023 265.828 516.227 265.814 516.434C265.801 516.641 265.707 516.834 265.553 516.971L261.51 520.555L265.552 524.139C265.67 524.244 265.754 524.383 265.793 524.537C265.831 524.692 265.822 524.854 265.767 525.003C265.711 525.152 265.613 525.281 265.483 525.371C265.354 525.462 265.201 525.511 265.044 525.511ZM272.102 525.511C271.945 525.511 271.792 525.462 271.663 525.372C271.533 525.281 271.434 525.153 271.379 525.003C271.324 524.854 271.315 524.692 271.353 524.537C271.391 524.383 271.475 524.244 271.594 524.139L275.636 520.555L271.594 516.971C271.44 516.834 271.346 516.641 271.332 516.434C271.318 516.227 271.387 516.023 271.521 515.867C271.656 515.71 271.847 515.615 272.051 515.601C272.255 515.587 272.457 515.656 272.611 515.793L277.317 519.966C277.4 520.04 277.466 520.13 277.511 520.232C277.557 520.333 277.58 520.443 277.58 520.555C277.58 520.666 277.557 520.777 277.511 520.878C277.466 520.98 277.4 521.07 277.317 521.144L272.611 525.317C272.47 525.442 272.29 525.511 272.102 525.511ZM266.808 527.299C266.688 527.299 266.57 527.271 266.462 527.216C266.355 527.161 266.261 527.082 266.189 526.984C266.118 526.886 266.069 526.773 266.048 526.653C266.027 526.533 266.034 526.41 266.069 526.293L269.598 514.37C269.625 514.269 269.671 514.174 269.734 514.091C269.798 514.008 269.877 513.939 269.967 513.888C270.057 513.837 270.157 513.805 270.259 513.793C270.362 513.782 270.466 513.791 270.565 513.821C270.664 513.851 270.756 513.901 270.836 513.968C270.915 514.034 270.981 514.116 271.029 514.209C271.076 514.302 271.105 514.404 271.114 514.508C271.122 514.612 271.11 514.717 271.077 514.817L267.548 526.74C267.5 526.902 267.403 527.043 267.269 527.144C267.136 527.244 266.975 527.299 266.808 527.299Z" fill="white"/>
<defs>
<filter id="filter0_i_1_6223" x="106.312" y="227.441" width="91.3959" height="95.9658" filterUnits="userSpaceOnUse" color-interpolation-filters="sRGB">
<feFlood flood-opacity="0" result="BackgroundImageFix"/>
<feBlend mode="normal" in="SourceGraphic" in2="BackgroundImageFix" result="shape"/>
<feColorMatrix in="SourceAlpha" type="matrix" values="0 0 0 0 0 0 0 0 0 0 0 0 0 0 0 0 0 0 127 0" result="hardAlpha"/>
<feOffset dy="-4.5698"/>
<feGaussianBlur stdDeviation="4.34131"/>
<feComposite in2="hardAlpha" operator="arithmetic" k2="-1" k3="1"/>
<feColorMatrix type="matrix" values="0 0 0 0 1 0 0 0 0 1 0 0 0 0 1 0 0 0 0.25 0"/>
<feBlend mode="normal" in2="shape" result="effect1_innerShadow_1_6223"/>
</filter>
<filter id="filter1_ii_1_6223" x="123.387" y="249.819" width="56.7708" height="56.2783" filterUnits="userSpaceOnUse" color-interpolation-filters="sRGB">
<feFlood flood-opacity="0" result="BackgroundImageFix"/>
<feBlend mode="normal" in="SourceGraphic" in2="BackgroundImageFix" result="shape"/>
<feColorMatrix in="SourceAlpha" type="matrix" values="0 0 0 0 0 0 0 0 0 0 0 0 0 0 0 0 0 0 127 0" result="hardAlpha"/>
<feOffset dx="2.48995" dy="0.497989"/>
<feGaussianBlur stdDeviation="1.36947"/>
<feComposite in2="hardAlpha" operator="arithmetic" k2="-1" k3="1"/>
<feColorMatrix type="matrix" values="0 0 0 0 1 0 0 0 0 1 0 0 0 0 1 0 0 0 0.32 0"/>
<feBlend mode="normal" in2="shape" result="effect1_innerShadow_1_6223"/>
<feColorMatrix in="SourceAlpha" type="matrix" values="0 0 0 0 0 0 0 0 0 0 0 0 0 0 0 0 0 0 127 0" result="hardAlpha"/>
<feOffset dx="-2.48995" dy="0.497989"/>
<feGaussianBlur stdDeviation="1.36947"/>
<feComposite in2="hardAlpha" operator="arithmetic" k2="-1" k3="1"/>
<feColorMatrix type="matrix" values="0 0 0 0 1 0 0 0 0 1 0 0 0 0 1 0 0 0 0.32 0"/>
<feBlend mode="normal" in2="effect1_innerShadow_1_6223" result="effect2_innerShadow_1_6223"/>
</filter>
<linearGradient id="paint0_linear_1_6223" x1="181" y1="288.684" x2="322.266" y2="470.527" gradientUnits="userSpaceOnUse">
<stop stop-color="#187AC9"/>
<stop offset="1" stop-color="#C5D6E3"/>
</linearGradient>
<linearGradient id="paint1_linear_1_6223" x1="139" y1="297.684" x2="228.179" y2="357.595" gradientUnits="userSpaceOnUse">
<stop stop-color="#187AC9"/>
<stop offset="1" stop-color="#C5D6E3"/>
</linearGradient>
<linearGradient id="paint2_linear_1_6223" x1="32" y1="298.683" x2="142.57" y2="508.597" gradientUnits="userSpaceOnUse">
<stop stop-color="#187AC9"/>
<stop offset="1" stop-color="#C5D6E3"/>
</linearGradient>
<linearGradient id="paint3_linear_1_6223" x1="133" y1="93.6831" x2="199.16" y2="115.482" gradientUnits="userSpaceOnUse">
<stop stop-color="#187AC9"/>
<stop offset="1" stop-color="#C5D6E3"/>
</linearGradient>
<linearGradient id="paint4_linear_1_6223" x1="32" y1="64.6831" x2="151.715" y2="248.262" gradientUnits="userSpaceOnUse">
<stop stop-color="#187AC9"/>
<stop offset="1" stop-color="#C5D6E3"/>
</linearGradient>
<linearGradient id="paint5_linear_1_6223" x1="176" y1="41.6831" x2="314.669" y2="232.494" gradientUnits="userSpaceOnUse">
<stop stop-color="#187AC9"/>
<stop offset="1" stop-color="#C5D6E3"/>
</linearGradient>
<linearGradient id="paint6_linear_1_6223" x1="27.4061" y1="525.206" x2="30.4877" y2="529.381" gradientUnits="userSpaceOnUse">
<stop stop-color="#EDECEC"/>
<stop offset="1" stop-color="#C4C4C4"/>
</linearGradient>
<linearGradient id="paint7_linear_1_6223" x1="27.4061" y1="525.206" x2="30.4877" y2="529.381" gradientUnits="userSpaceOnUse">
<stop stop-color="#6D6D6D"/>
<stop offset="1" stop-color="#131111"/>
</linearGradient>
</defs>
</svg>
