<svg xmlns="http://www.w3.org/2000/svg" width="84" height="21" fill="none"><path fill="#959595" d="M9.48 0 0 20.973h11.349l1.407-3.344h3.216l1.407 3.344H29.87v-2.552l1.113 2.552h6.462l1.113-2.606v2.606h25.98l3.16-3.257 2.957 3.257L84 21l-9.51-10.455L84 0H70.863l-3.075 3.197L64.923 0H36.66l-2.427 5.413L31.75 0H20.424v2.465L19.164 0H9.48Zm2.196 2.978h5.532L23.496 17.2V2.978h6.06l4.857 10.197L38.89 2.978h6.03v15.05H41.25l-.03-11.793-5.349 11.793H32.59L27.21 6.235v11.793h-7.548l-1.431-3.374h-7.73l-1.429 3.37H5.028l6.648-15.046Zm36.6 0h14.919l4.563 4.928 4.71-4.928h4.563l-6.933 7.564 6.933 7.477h-4.77l-4.563-4.985-4.734 4.985H48.276V2.979ZM14.367 5.524l-2.547 6.01h5.091l-2.544-6.01Zm37.593.57v2.747h8.14v3.063h-8.14v2.999h9.13l4.241-4.418-4.062-4.393H51.96v.002Z"/></svg>