<svg xmlns="http://www.w3.org/2000/svg" width="961" height="377" fill="none"><path stroke="url(#a)" d="M921 33.402h-84.124c-6.628 0-12 5.373-12 12v38.379c0 6.627-5.373 12-12 12H639.515c-6.628 0-12 5.372-12 12v24.704c0 6.628-5.373 12-12 12h-121.96"/><path stroke="url(#b)" d="M510.939 160.203h183.316c6.628 0 12 5.373 12 12v15.281c0 6.627 5.373 12 12 12H794"/><path stroke="url(#c)" d="M905.662 337.113h-30.949c-6.628 0-12-5.373-12-12v-34.288c0-6.628-5.373-12-12-12H673.262c-6.628 0-12-5.373-12-12v-70.079c0-6.627-5.373-12-12-12H514.008"/><path stroke="url(#d)" d="M140.76 207.243h88.74a4 4 0 0 0 4-4v-14.759a4 4 0 0 1 4-4h224.355"/><path stroke="url(#e)" d="M86.563 336.09v-48.333c0-6.628 5.372-12 12-12h188.699c6.628 0 12-5.373 12-12v-34.273c0-6.627 5.373-12 12-12H463.9"/><path stroke="url(#f)" d="M42.59 31.355h75.943c6.627 0 12 5.373 12 12v45.537c0 6.627 5.373 12 12 12h168.248c6.627 0 12 5.373 12 12v27.091c0 6.628 5.373 12 12 12h130.141"/><g filter="url(#g)"><rect width="117.551" height="117.551" x="421" y="123.484" fill="#1E1E1E" rx="11.755"/></g><rect width="115.592" height="115.592" x="421.98" y="124.464" stroke="#fff" stroke-opacity=".12" stroke-width="1.959" rx="10.775"/><g filter="url(#h)"><path fill="#121212" d="M509.384 163.394a.638.638 0 0 0 0-1.106l-24.458-14.21a10.27 10.27 0 0 0-10.3 0l-24.453 14.21a.638.638 0 0 0 0 1.106l29.283 17.226a.644.644 0 0 0 .651 0l29.277-17.226Zm-61.953 4.357a.643.643 0 0 0-.642.001.646.646 0 0 0-.318.558v27.844a7.685 7.685 0 0 0 3.817 6.628l25.966 15.569a.641.641 0 0 0 .961-.554v-32.306a.645.645 0 0 0-.321-.554l-29.463-17.186Zm34.908 17.852v32.186a.645.645 0 0 0 .32.554.644.644 0 0 0 .64 0l25.965-15.569a7.696 7.696 0 0 0 3.819-6.62V168.31a.638.638 0 0 0-.961-.552l-29.463 17.293a.645.645 0 0 0-.32.552Z"/></g><path stroke="#fff" stroke-width=".274" d="m509.193 202.656.002-.001a7.548 7.548 0 0 0 3.751-6.501V168.31m-3.753 34.346 3.803-34.666a.657.657 0 0 1 .087.32h-.137m-3.753 34.346-25.962 15.568h-.001a.502.502 0 0 1-.754-.436v-32.184a.503.503 0 0 1 .252-.434v-.001l29.463-17.293-.069-.118.069.118m-2.998 34.78 2.998-34.78m.755.434a.507.507 0 0 0-.755-.434m.755.434-.755-.434m-2.876-4.6h-.001l-29.277 17.226a.5.5 0 0 1-.511 0l-29.284-17.226a.512.512 0 0 1-.25-.435.502.502 0 0 1 .25-.435l24.452-14.209a10.133 10.133 0 0 1 10.164 0l24.457 14.209a.505.505 0 0 1 0 .87Zm-62.707 5.034v-.001a.498.498 0 0 1 .25-.438.5.5 0 0 1 .505-.001l29.462 17.186h.001a.507.507 0 0 1 .252.436v32.304a.504.504 0 0 1-.755.436l-25.964-15.568-.002-.001a7.546 7.546 0 0 1-3.749-6.509V168.31Z"/><rect width="78.367" height="78.367" y=".484" fill="#1E1E1E" rx="11.755"/><rect width="76.408" height="76.408" x=".98" y="1.464" stroke="#fff" stroke-opacity=".12" stroke-width="1.959" rx="10.775"/><path fill="#fff" d="M68 33.517c0-7.194-5.824-13.033-13-13.033s-13 5.839-13 13.033c0 6.308 4.472 11.56 10.4 12.772v-8.862h-2.6v-3.91h2.6v-3.258c0-2.515 2.041-4.562 4.55-4.562h3.25v3.91h-2.6c-.715 0-1.3.587-1.3 1.303v2.607h3.9v3.91h-3.9v9.057c6.565-.651 11.7-6.203 11.7-12.967ZM24.336 32.484c1.463.004 2.205.012 2.846.03l.252.01c.291.01.579.023.926.038 1.383.065 2.327.284 3.155.605.858.33 1.58.777 2.303 1.499a6.382 6.382 0 0 1 1.499 2.303c.321.828.54 1.772.604 3.157.016.345.029.633.04.925l.007.252c.02.64.027 1.382.03 2.845l.001.97v1.702c.004.949-.006 1.897-.03 2.845l-.007.252c-.01.292-.024.58-.04.925-.064 1.385-.285 2.328-.605 3.157a6.347 6.347 0 0 1-1.499 2.303 6.389 6.389 0 0 1-2.303 1.5c-.828.32-1.772.539-3.155.604-.309.014-.617.027-.926.039l-.252.008c-.64.018-1.383.027-2.846.03h-2.67c-.95.004-1.898-.006-2.846-.03l-.253-.007a84 84 0 0 1-.925-.04c-1.383-.065-2.327-.284-3.156-.605a6.356 6.356 0 0 1-2.303-1.499 6.375 6.375 0 0 1-1.5-2.303c-.32-.828-.54-1.772-.604-3.157-.015-.308-.028-.616-.04-.925l-.006-.252c-.024-.948-.035-1.896-.032-2.845v-2.672c-.004-.949.006-1.897.028-2.845l.01-.252c.01-.292.023-.58.038-.925.065-1.385.284-2.327.605-3.157a6.344 6.344 0 0 1 1.503-2.303 6.366 6.366 0 0 1 2.3-1.5c.83-.32 1.772-.539 3.157-.604.346-.015.634-.028.925-.039l.253-.007c.947-.023 1.896-.033 2.844-.03l2.672-.002ZM23 38.984a6.5 6.5 0 1 0 0 13 6.5 6.5 0 0 0 0-13Zm0 2.6a3.9 3.9 0 1 1-.001 7.8 3.9 3.9 0 0 1 .002-7.8m6.825-4.55a1.625 1.625 0 1 0 0 3.25 1.625 1.625 0 0 0 0-3.25Z"/><rect width="78.367" height="78.367" x="39.184" y="292.402" fill="#1E1E1E" rx="11.755"/><rect width="76.408" height="76.408" x="40.163" y="293.382" stroke="#fff" stroke-opacity=".12" stroke-width="1.959" rx="10.775"/><path fill="#121212" d="M52 345.589h51v5.368H52z"/><path fill="#505050" d="M64.527 312.484h34v26.842H75.712l-11.185-26.842Z"/><path stroke="#fff" stroke-linecap="round" stroke-width="2.684" d="M57.368 341.116v-28.632h41.158v31.763M84.21 345.142H103v5.816H52v-5.816h19.237"/><rect width="62.694" height="62.694" x="123.428" y="168.973" fill="#1E1E1E" rx="7.837"/><rect width="60.735" height="60.735" x="124.407" y="169.952" stroke="#fff" stroke-opacity=".12" stroke-width="1.959" rx="6.857"/><path fill="#fff" fill-rule="evenodd" d="M145.596 179.484A3.596 3.596 0 0 0 142 183.08v34.757a3.596 3.596 0 0 0 3.596 3.596h18.277a3.596 3.596 0 0 0 3.596-3.596V183.08a3.596 3.596 0 0 0-3.596-3.596h-18.277Zm19.776 4.794h-21.274v30.862h21.274v-30.862Zm-14.981-2.097c0-.497.402-.899.899-.899h6.891a.898.898 0 1 1 0 1.798h-6.891a.899.899 0 0 1-.899-.899Zm4.493 37.754a1.798 1.798 0 1 0 0-3.596 1.798 1.798 0 0 0 0 3.596Z" clip-rule="evenodd"/><rect width="78.367" height="78.367" x="882" y="298.484" fill="#1E1E1E" rx="11.755"/><rect width="76.408" height="76.408" x="882.98" y="299.464" stroke="#fff" stroke-opacity=".12" stroke-width="1.959" rx="10.775"/><rect width="43.742" height="28.474" x="908.955" y="325.526" fill="#131111" rx="3.714"/><rect width="8.253" height="5.365" x="912.67" y="333.779" fill="url(#i)" rx="1.238"/><rect width="8.253" height="5.365" x="912.67" y="333.779" fill="url(#j)" rx="1.238"/><path fill="#505050" d="M945.484 329.652v13.381a.141.141 0 0 1-.213.121.144.144 0 0 1-.05-.051l-7.523-13.029a.844.844 0 0 0-.315-.31.884.884 0 0 0-.43-.112h-3.237v16.007h8.012l-1.094-1.61a2.084 2.084 0 0 0-.756-.673 2.126 2.126 0 0 0-.99-.244h-2.082v-9.189c0-.013.003-.025.008-.037a.106.106 0 0 1 .021-.031.097.097 0 0 1 .068-.027c.017 0 .034.004.049.013.015.008.027.02.035.035l7.606 13.028a.867.867 0 0 0 .743.42h3.236v-17.692h-3.088ZM943.441 349.873h-6.873c-.393 0-.778-.109-1.111-.313a2.068 2.068 0 0 1-.774-.843l-.683-1.372h6.873c.392 0 .778.108 1.111.312.333.204.601.496.774.843l.683 1.373Z"/><path fill="#fff" d="M892.808 364.139a2.808 2.808 0 0 1-2.808-2.808v-47.038a2.809 2.809 0 0 1 2.808-2.809h32.295a2.809 2.809 0 0 1 2.808 2.809v47.038a2.808 2.808 0 0 1-2.808 2.808h-32.295Z"/><rect width="13.339" height="29.486" x="894.211" y="330.44" fill="#505050" rx="2.808" transform="rotate(-90 894.211 330.44)"/><rect width="6.319" height="8.425" x="894.211" y="359.224" fill="#2C2A2A" rx="1.404" transform="rotate(-90 894.211 359.224)"/><rect width="6.319" height="8.425" x="894.211" y="350.8" fill="#2C2A2A" rx="1.404" transform="rotate(-90 894.211 350.8)"/><rect width="6.319" height="8.425" x="894.211" y="342.375" fill="#2C2A2A" rx="1.404" transform="rotate(-90 894.211 342.375)"/><rect width="6.319" height="8.425" x="904.744" y="359.224" fill="#2C2A2A" rx="1.404" transform="rotate(-90 904.744 359.224)"/><rect width="6.319" height="8.425" x="904.744" y="350.8" fill="#2C2A2A" rx="1.404" transform="rotate(-90 904.744 350.8)"/><rect width="6.319" height="8.425" x="904.744" y="342.375" fill="#2C2A2A" rx="1.404" transform="rotate(-90 904.744 342.375)"/><rect width="6.319" height="8.425" x="915.271" y="359.224" fill="#2C2A2A" rx="1.404" transform="rotate(-90 915.271 359.224)"/><rect width="6.319" height="8.425" x="915.271" y="350.8" fill="#2C2A2A" rx="1.404" transform="rotate(-90 915.271 350.8)"/><rect width="6.319" height="8.425" x="915.271" y="342.375" fill="#2C2A2A" rx="1.404" transform="rotate(-90 915.271 342.375)"/><rect width="62.694" height="62.694" x="773.877" y="168.973" fill="#1E1E1E" rx="7.837"/><rect width="60.735" height="60.735" x="774.857" y="169.952" stroke="#fff" stroke-opacity=".12" stroke-width="1.959" rx="6.857"/><path fill="#fff" fill-rule="evenodd" d="M782 188.587a3.103 3.103 0 0 1 3.103-3.103h32.424a3.104 3.104 0 0 1 3.103 3.103v21.72a3.103 3.103 0 0 1-3.103 3.102h-32.424a3.102 3.102 0 0 1-3.103-3.102v-15.98h38.629v-4.654H782v-1.086Zm18.151 7.602h-14.428v1.396h14.428v-1.396Z" clip-rule="evenodd"/><path fill="#131111" fill-rule="evenodd" d="M809.498 204.669a3.546 3.546 0 0 0 .856 6.496 3.552 3.552 0 0 0 2.692-.354l2.522-1.455a.819.819 0 0 1 .819 1.417l-2.522 1.455a5.189 5.189 0 0 1-7.084-1.897 5.179 5.179 0 0 1 1.898-7.08l2.521-1.454a.818.818 0 1 1 .819 1.417l-2.521 1.455Zm5.185-3.937a.818.818 0 0 1 .3-1.118l2.521-1.454a5.186 5.186 0 0 1 7.603 5.829 5.182 5.182 0 0 1-2.416 3.147l-2.522 1.455a.818.818 0 1 1-.819-1.417l2.522-1.455a3.548 3.548 0 0 0 1.299-4.844 3.55 3.55 0 0 0-4.848-1.298l-2.521 1.455a.82.82 0 0 1-1.119-.3Zm-3.36 6.978a.817.817 0 0 1 .3-1.117l7.384-4.261a.818.818 0 0 1 .819 1.418l-7.384 4.26a.82.82 0 0 1-1.119-.3Z" clip-rule="evenodd"/><defs><linearGradient id="a" x1="493.555" x2="730.529" y1="144.485" y2="-130.65" gradientUnits="userSpaceOnUse"><stop stop-color="#187AC9"/><stop offset="1" stop-color="#C5D6E3"/></linearGradient><linearGradient id="b" x1="510.939" x2="575.273" y1="199.484" y2="59.605" gradientUnits="userSpaceOnUse"><stop stop-color="#187AC9"/><stop offset="1" stop-color="#C5D6E3"/></linearGradient><linearGradient id="c" x1="514.008" x2="832.347" y1="337.113" y2="90.216" gradientUnits="userSpaceOnUse"><stop stop-color="#187AC9"/><stop offset="1" stop-color="#C5D6E3"/></linearGradient><linearGradient id="d" x1="140.76" x2="162.618" y1="207.243" y2="114.191" gradientUnits="userSpaceOnUse"><stop stop-color="#187AC9"/><stop offset="1" stop-color="#C5D6E3"/></linearGradient><linearGradient id="e" x1="86.563" x2="342.197" y1="336.09" y2="90.7" gradientUnits="userSpaceOnUse"><stop stop-color="#187AC9"/><stop offset="1" stop-color="#C5D6E3"/></linearGradient><linearGradient id="f" x1="42.59" x2="302.41" y1="151.983" y2="-122.484" gradientUnits="userSpaceOnUse"><stop stop-color="#187AC9"/><stop offset="1" stop-color="#C5D6E3"/></linearGradient><linearGradient id="i" x1="916.641" x2="920.604" y1="333.779" y2="339.149" gradientUnits="userSpaceOnUse"><stop stop-color="#EDECEC"/><stop offset="1" stop-color="#C4C4C4"/></linearGradient><linearGradient id="j" x1="916.641" x2="920.604" y1="333.779" y2="339.149" gradientUnits="userSpaceOnUse"><stop stop-color="#6D6D6D"/><stop offset="1" stop-color="#131111"/></linearGradient><filter id="g" width="117.551" height="123.429" x="421" y="117.607" color-interpolation-filters="sRGB" filterUnits="userSpaceOnUse"><feFlood flood-opacity="0" result="BackgroundImageFix"/><feBlend in="SourceGraphic" in2="BackgroundImageFix" result="shape"/><feColorMatrix in="SourceAlpha" result="hardAlpha" values="0 0 0 0 0 0 0 0 0 0 0 0 0 0 0 0 0 0 127 0"/><feOffset dy="-5.878"/><feGaussianBlur stdDeviation="5.584"/><feComposite in2="hardAlpha" k2="-1" k3="1" operator="arithmetic"/><feColorMatrix values="0 0 0 0 1 0 0 0 0 1 0 0 0 0 1 0 0 0 0.25 0"/><feBlend in2="shape" result="effect1_innerShadow_1_5287"/></filter><filter id="h" width="73.017" height="72.384" x="443.268" y="146.693" color-interpolation-filters="sRGB" filterUnits="userSpaceOnUse"><feFlood flood-opacity="0" result="BackgroundImageFix"/><feBlend in="SourceGraphic" in2="BackgroundImageFix" result="shape"/><feColorMatrix in="SourceAlpha" result="hardAlpha" values="0 0 0 0 0 0 0 0 0 0 0 0 0 0 0 0 0 0 127 0"/><feOffset dx="3.203" dy=".64"/><feGaussianBlur stdDeviation="1.761"/><feComposite in2="hardAlpha" k2="-1" k3="1" operator="arithmetic"/><feColorMatrix values="0 0 0 0 1 0 0 0 0 1 0 0 0 0 1 0 0 0 0.32 0"/><feBlend in2="shape" result="effect1_innerShadow_1_5287"/><feColorMatrix in="SourceAlpha" result="hardAlpha" values="0 0 0 0 0 0 0 0 0 0 0 0 0 0 0 0 0 0 127 0"/><feOffset dx="-3.203" dy=".64"/><feGaussianBlur stdDeviation="1.761"/><feComposite in2="hardAlpha" k2="-1" k3="1" operator="arithmetic"/><feColorMatrix values="0 0 0 0 1 0 0 0 0 1 0 0 0 0 1 0 0 0 0.32 0"/><feBlend in2="effect1_innerShadow_1_5287" result="effect2_innerShadow_1_5287"/></filter></defs></svg>