<svg xmlns="http://www.w3.org/2000/svg" width="312" height="559" fill="none"><path stroke="url(#a)" stroke-width=".777" d="M268 512.684V471.64a9.33 9.33 0 0 0-9.33-9.33h-30.195a9.33 9.33 0 0 1-9.33-9.33v-84.765a9.33 9.33 0 0 0-9.33-9.33H190.33a9.33 9.33 0 0 1-9.33-9.33v-60.871"/><path stroke="url(#b)" stroke-width=".777" d="M169 297.684v92.792a9.33 9.33 0 0 1-9.33 9.33h-11.34a9.33 9.33 0 0 0-9.33 9.33v36.548"/><path stroke="url(#c)" stroke-width=".777" d="M32 504.683v-13.26a9.33 9.33 0 0 1 9.33-9.33h26.481a9.33 9.33 0 0 0 9.33-9.33v-87.298a9.33 9.33 0 0 1 9.33-9.33h54.199a9.33 9.33 0 0 0 9.33-9.33v-68.122"/><path stroke="url(#d)" stroke-width=".777" d="M133 93.683v46.279a3.11 3.11 0 0 0 3.11 3.11h10.78a3.11 3.11 0 0 1 3.11 3.11v118.501"/><path stroke="url(#e)" stroke-width=".777" d="M32 64.683h37.978a9.33 9.33 0 0 1 9.33 9.33v94.641a9.33 9.33 0 0 0 9.33 9.33h27.032a9.33 9.33 0 0 1 9.33 9.33v78.369"/><path stroke="url(#f)" stroke-width=".777" d="M269 41.683v37.314a9.33 9.33 0 0 1-9.33 9.33h-34.95a9.33 9.33 0 0 0-9.33 9.33v83.306a9.33 9.33 0 0 1-9.33 9.33h-20.73a9.33 9.33 0 0 0-9.33 9.33v66.06"/><g filter="url(#g)"><rect width="91.396" height="91.396" x="197.708" y="232.011" fill="#1E1E1E" rx="9.14" transform="rotate(90 197.708 232.011)"/></g><rect width="89.873" height="89.873" x="196.946" y="232.772" stroke="#fff" stroke-opacity=".12" stroke-width="1.523" rx="8.378" transform="rotate(90 196.946 232.772)"/><g filter="url(#h)"><path fill="#121212" d="M174.792 262.804a.501.501 0 0 0 .247-.43.5.5 0 0 0-.247-.43l-19.016-11.048a7.985 7.985 0 0 0-8.009 0l-19.012 11.048a.5.5 0 0 0 0 .86l22.768 13.394a.5.5 0 0 0 .506 0l22.763-13.394Zm-48.168 3.388a.498.498 0 0 0-.747.434v21.649a5.976 5.976 0 0 0 2.968 5.153l20.188 12.105a.497.497 0 0 0 .747-.431v-25.117a.5.5 0 0 0-.249-.431l-22.907-13.362Zm27.14 13.88v25.024c0 .087.024.173.067.249a.507.507 0 0 0 .431.248.501.501 0 0 0 .249-.066l20.188-12.105a5.977 5.977 0 0 0 2.969-5.147v-21.649a.492.492 0 0 0-.068-.248.49.49 0 0 0-.431-.248.49.49 0 0 0-.248.067l-22.908 13.445a.501.501 0 0 0-.249.43Z"/></g><path stroke="#fff" stroke-width=".213" d="M174.738 262.712a.39.39 0 0 0 .142-.533.397.397 0 0 0-.142-.143v.676Zm0 0-22.763 13.394a.396.396 0 0 1-.397 0h-.001l-22.768-13.394m45.929 0h-45.929m0 0a.39.39 0 0 1-.142-.533.39.39 0 0 1 .142-.143l19.012-11.048a7.874 7.874 0 0 1 7.902 0l-26.914 11.724Zm26.914-11.724 19.015 11.048-19.015-11.048Zm-29.739 15.638a.389.389 0 0 1 .39-.394.4.4 0 0 1 .197.052l22.907 13.362a.392.392 0 0 1 .196.339v25.117a.387.387 0 0 1-.196.339.396.396 0 0 1-.39 0h-.001L128.9 293.337l-.001-.001a5.863 5.863 0 0 1-2.915-5.061v-21.649Zm48.661 26.704h-.001l-20.186 12.104-.001.001a.39.39 0 0 1-.586-.339v-25.024a.386.386 0 0 1 .196-.337v-.001l22.907-13.445h.001a.39.39 0 0 1 .586.338v21.648a5.872 5.872 0 0 1-2.916 5.055Z"/><rect width="60.931" height="60.931" x="293.34" y=".683" fill="#1E1E1E" rx="9.14" transform="rotate(90 293.34 .683)"/><rect width="59.407" height="59.407" x="292.578" y="1.445" stroke="#fff" stroke-opacity=".12" stroke-width="1.523" rx="8.378" transform="rotate(90 292.578 1.445)"/><path fill="url(#i)" d="M285.095 25.816c0-5.593-4.529-10.132-10.108-10.132-5.579 0-10.107 4.54-10.107 10.132 0 4.905 3.477 8.988 8.086 9.93v-6.89h-2.022v-3.04h2.022v-2.533a3.546 3.546 0 0 1 3.537-3.546h2.527v3.04h-2.021c-.556 0-1.011.456-1.011 1.013v2.026h3.032v3.04h-3.032V35.9c5.104-.507 9.097-4.824 9.097-10.083Z"/><path fill="url(#j)" d="M251.146 25.014a87.5 87.5 0 0 1 2.213.023l.196.007c.226.008.45.018.719.03 1.076.05 1.81.22 2.453.47a4.928 4.928 0 0 1 1.791 1.166 4.964 4.964 0 0 1 1.166 1.79c.249.645.419 1.378.47 2.455.012.269.022.492.03.72l.006.195c.015.498.021 1.075.023 2.212l.001.754v1.324c.003.737-.005 1.474-.023 2.211l-.006.197c-.008.227-.018.45-.03.72-.051 1.076-.223 1.808-.471 2.453a4.931 4.931 0 0 1-1.166 1.791 4.96 4.96 0 0 1-1.791 1.166c-.643.25-1.377.419-2.453.47a73.77 73.77 0 0 1-.719.03l-.196.006a82.28 82.28 0 0 1-2.213.023l-.754.001h-1.323a79.577 79.577 0 0 1-2.212-.023l-.196-.006-.72-.031c-1.075-.051-1.809-.22-2.454-.47a4.95 4.95 0 0 1-1.79-1.166 4.962 4.962 0 0 1-1.166-1.79c-.25-.645-.419-1.378-.47-2.455a86.35 86.35 0 0 1-.03-.72l-.005-.196A81.516 81.516 0 0 1 240 36.16v-2.078c-.002-.737.005-1.474.023-2.212l.007-.196c.008-.227.018-.45.03-.72.051-1.076.22-1.809.47-2.453a4.943 4.943 0 0 1 1.168-1.791 4.954 4.954 0 0 1 1.789-1.166c.645-.25 1.378-.42 2.454-.47.269-.012.493-.022.72-.03l.196-.006a79.895 79.895 0 0 1 2.211-.023l2.078-.001Zm-1.039 5.053a5.053 5.053 0 1 0 0 10.107 5.053 5.053 0 0 0 0-10.107Zm0 2.022a3.032 3.032 0 1 1 0 6.064 3.032 3.032 0 0 1 .001-6.064m5.306-3.538a1.263 1.263 0 1 0 0 2.525 1.263 1.263 0 0 0 0-2.525Z"/><rect width="60.931" height="60.931" x="66.374" y="31.148" fill="#1E1E1E" rx="9.14" transform="rotate(90 66.374 31.148)"/><rect width="59.407" height="59.407" x="65.612" y="31.91" stroke="#fff" stroke-opacity=".12" stroke-width="1.523" rx="8.378" transform="rotate(90 65.612 31.91)"/><path fill="#121212" d="M15.977 71.721H55.63v4.174H15.977z"/><path fill="url(#k)" d="M25.718 45.981h26.435v20.87h-17.74l-8.695-20.87Z"/><path stroke="#fff" stroke-linecap="round" stroke-width="2.087" d="M20.15 68.242V45.981h32.001v24.696M41.021 71.372H55.63v4.522H15.977v-4.522h14.957"/><rect width="48.745" height="48.745" x="157.745" y="70.683" fill="#1E1E1E" rx="6.093" transform="rotate(90 157.745 70.683)"/><rect width="47.221" height="47.221" x="156.983" y="71.445" stroke="#fff" stroke-opacity=".12" stroke-width="1.523" rx="5.331" transform="rotate(90 156.983 71.445)"/><path fill="#fff" fill-rule="evenodd" d="M126.159 78.717a2.796 2.796 0 0 0-2.796 2.795v27.024a2.796 2.796 0 0 0 2.796 2.796h14.21a2.796 2.796 0 0 0 2.796-2.796V81.512a2.796 2.796 0 0 0-2.796-2.795h-14.21Zm15.376 3.728h-16.541v23.995h16.541V82.445Zm-11.649-1.632c0-.386.313-.698.699-.698h5.359a.698.698 0 0 1 0 1.397h-5.359a.699.699 0 0 1-.699-.699Zm3.494 29.353a1.397 1.397 0 1 0 .001-2.795 1.397 1.397 0 0 0-.001 2.795Z" clip-rule="evenodd"/><rect width="60.931" height="60.931" x="61.645" y="497.749" fill="#1E1E1E" rx="9.14" transform="rotate(90 61.645 497.749)"/><rect width="59.407" height="59.407" x="60.883" y="498.511" stroke="#fff" stroke-opacity=".12" stroke-width="1.523" rx="8.378" transform="rotate(90 60.883 498.511)"/><rect width="34.01" height="22.138" x="21.431" y="518.789" fill="#131111" rx="2.888"/><rect width="6.417" height="4.171" x="24.319" y="525.206" fill="url(#l)" rx=".963"/><rect width="6.417" height="4.171" x="24.319" y="525.206" fill="url(#m)" rx=".963"/><path fill="url(#n)" d="M49.833 521.997v10.404a.112.112 0 0 1-.112.11.115.115 0 0 1-.054-.017.107.107 0 0 1-.04-.039l-5.848-10.13a.666.666 0 0 0-.58-.328h-2.516v12.445h6.23l-.852-1.252a1.62 1.62 0 0 0-.587-.523 1.66 1.66 0 0 0-.77-.189h-1.618v-7.145a.07.07 0 0 1 .005-.028.066.066 0 0 1 .017-.024.064.064 0 0 1 .024-.016.072.072 0 0 1 .03-.006c.012 0 .025.004.037.01a.082.082 0 0 1 .027.027l5.913 10.13a.66.66 0 0 0 .578.326h2.517v-13.755h-2.401Z"/><path fill="url(#o)" d="M48.244 537.718h-5.343c-.306 0-.605-.084-.865-.243a1.604 1.604 0 0 1-.602-.655l-.53-1.067h5.343c.306 0 .605.084.864.243.26.159.468.386.602.655l.531 1.067Z"/><path fill="#fff" d="M8.877 548.812a2.183 2.183 0 0 1-2.183-2.183v-36.572c0-1.206.978-2.183 2.183-2.183h25.11c1.206 0 2.183.977 2.183 2.183v36.572a2.183 2.183 0 0 1-2.183 2.183H8.877Z"/><rect width="10.371" height="22.926" x="9.968" y="522.61" fill="#505050" rx="2.183" transform="rotate(-90 9.968 522.61)"/><rect width="4.913" height="6.55" x="9.968" y="544.99" fill="#2C2A2A" rx="1.092" transform="rotate(-90 9.968 544.99)"/><rect width="4.913" height="6.55" x="9.968" y="538.441" fill="#2C2A2A" rx="1.092" transform="rotate(-90 9.968 538.441)"/><rect width="4.913" height="6.55" x="9.968" y="531.889" fill="#2C2A2A" rx="1.092" transform="rotate(-90 9.968 531.889)"/><rect width="4.913" height="6.55" x="18.157" y="544.99" fill="#2C2A2A" rx="1.092" transform="rotate(-90 18.157 544.99)"/><rect width="4.913" height="6.55" x="18.157" y="538.441" fill="#2C2A2A" rx="1.092" transform="rotate(-90 18.157 538.441)"/><rect width="4.913" height="6.55" x="18.157" y="531.889" fill="#2C2A2A" rx="1.092" transform="rotate(-90 18.157 531.889)"/><rect width="4.913" height="6.55" x="26.343" y="544.99" fill="#2C2A2A" rx="1.092" transform="rotate(-90 26.343 544.99)"/><rect width="4.913" height="6.55" x="26.343" y="538.441" fill="#2C2A2A" rx="1.092" transform="rotate(-90 26.343 538.441)"/><rect width="4.913" height="6.55" x="26.343" y="531.889" fill="#2C2A2A" rx="1.092" transform="rotate(-90 26.343 531.889)"/><rect width="48.745" height="48.745" x="162.34" y="425.683" fill="#1E1E1E" rx="6.093" transform="rotate(90 162.34 425.683)"/><rect width="47.221" height="47.221" x="161.579" y="426.445" stroke="#fff" stroke-opacity=".12" stroke-width="1.523" rx="5.331" transform="rotate(90 161.579 426.445)"/><path fill="#fff" fill-rule="evenodd" d="M120.535 440.57a2.412 2.412 0 0 1 2.412-2.412h25.21a2.412 2.412 0 0 1 2.412 2.412v16.887a2.412 2.412 0 0 1-2.412 2.412h-25.21a2.412 2.412 0 0 1-2.412-2.412v-12.423h30.034v-3.619h-30.034v-.845Zm14.113 5.91H123.43v1.085h11.218v-1.085Z" clip-rule="evenodd"/><path fill="url(#p)" fill-rule="evenodd" d="M141.913 453.076a2.755 2.755 0 0 0 .665 5.05c.707.19 1.46.09 2.094-.275l1.96-1.131a.636.636 0 1 1 .637 1.102l-1.96 1.131a4.035 4.035 0 0 1-5.509-1.475 4.03 4.03 0 0 1 1.476-5.504l1.961-1.132a.637.637 0 0 1 .636 1.102l-1.96 1.132Zm4.031-3.061a.637.637 0 0 1 .233-.869l1.961-1.131a4.035 4.035 0 0 1 5.508 1.475 4.023 4.023 0 0 1-1.476 5.504l-1.96 1.131a.636.636 0 1 1-.637-1.102l1.961-1.131a2.76 2.76 0 0 0 1.009-3.766 2.756 2.756 0 0 0-3.768-1.009l-1.961 1.131a.638.638 0 0 1-.87-.233Zm-2.612 5.425a.635.635 0 0 1 .233-.869l5.741-3.312a.636.636 0 1 1 .637 1.102l-5.741 3.312a.636.636 0 0 1-.87-.233Z" clip-rule="evenodd"/><rect width="60.931" height="60.931" x="298.931" y="487.684" fill="#1E1E1E" rx="9.14" transform="rotate(90 298.931 487.684)"/><rect width="59.407" height="59.407" x="298.169" y="488.445" stroke="#fff" stroke-opacity=".12" stroke-width="1.523" rx="8.378" transform="rotate(90 298.169 488.445)"/><path fill="#fff" fill-rule="evenodd" d="M246.807 504.074c0-.852.69-1.543 1.543-1.543h40.273c.852 0 1.543.691 1.543 1.543v28.258c0 .852-.691 1.543-1.543 1.543H248.35a1.543 1.543 0 0 1-1.543-1.543v-28.258Zm3.134 6.679c0-.213.172-.386.385-.386h36.319c.213 0 .386.173.386.386v19.602a.385.385 0 0 1-.386.385h-36.319a.385.385 0 0 1-.385-.385v-19.602Zm1.044-4.043a1.045 1.045 0 1 0 0-2.09 1.045 1.045 0 0 0 0 2.09Zm4.18-1.045a1.045 1.045 0 1 1-2.09 0 1.045 1.045 0 0 1 2.09 0Zm2.09 1.045a1.045 1.045 0 1 0 0-2.09 1.045 1.045 0 0 0 0 2.09Z" clip-rule="evenodd"/><path fill="url(#q)" d="M265.044 525.511a.763.763 0 0 1-.508-.194l-4.706-4.173a.79.79 0 0 1 0-1.178l4.706-4.173a.763.763 0 0 1 1.089.074.79.79 0 0 1-.072 1.104l-4.043 3.584 4.042 3.584a.787.787 0 0 1-.068 1.232.767.767 0 0 1-.44.14Zm7.059 0a.768.768 0 0 1-.724-.508.787.787 0 0 1 .215-.864l4.042-3.584-4.042-3.584a.79.79 0 0 1-.072-1.104.764.764 0 0 1 1.089-.074l4.706 4.173a.778.778 0 0 1 .194.912.774.774 0 0 1-.194.266l-4.706 4.173a.763.763 0 0 1-.508.194Zm-5.294 1.788a.761.761 0 0 1-.619-.315.789.789 0 0 1-.121-.691l3.529-11.923a.79.79 0 0 1 .369-.482.772.772 0 0 1 1.147.62.792.792 0 0 1-.037.309l-3.529 11.923a.77.77 0 0 1-.739.559Z"/><defs><linearGradient id="a" x1="181" x2="322.266" y1="288.684" y2="470.527" gradientUnits="userSpaceOnUse"><stop stop-color="#187AC9"/><stop offset="1" stop-color="#C5D6E3"/></linearGradient><linearGradient id="b" x1="139" x2="228.179" y1="297.684" y2="357.595" gradientUnits="userSpaceOnUse"><stop stop-color="#187AC9"/><stop offset="1" stop-color="#C5D6E3"/></linearGradient><linearGradient id="c" x1="32" x2="142.57" y1="298.683" y2="508.597" gradientUnits="userSpaceOnUse"><stop stop-color="#187AC9"/><stop offset="1" stop-color="#C5D6E3"/></linearGradient><linearGradient id="d" x1="133" x2="199.16" y1="93.683" y2="115.482" gradientUnits="userSpaceOnUse"><stop stop-color="#187AC9"/><stop offset="1" stop-color="#C5D6E3"/></linearGradient><linearGradient id="e" x1="32" x2="151.715" y1="64.683" y2="248.262" gradientUnits="userSpaceOnUse"><stop stop-color="#187AC9"/><stop offset="1" stop-color="#C5D6E3"/></linearGradient><linearGradient id="f" x1="176" x2="314.669" y1="41.683" y2="232.494" gradientUnits="userSpaceOnUse"><stop stop-color="#187AC9"/><stop offset="1" stop-color="#C5D6E3"/></linearGradient><linearGradient id="i" x1="264.88" x2="288.998" y1="35.899" y2="28.621" gradientUnits="userSpaceOnUse"><stop stop-color="#187AC9"/><stop offset="1" stop-color="#C5D6E3"/></linearGradient><linearGradient id="j" x1="240" x2="264.118" y1="45.229" y2="37.952" gradientUnits="userSpaceOnUse"><stop stop-color="#187AC9"/><stop offset="1" stop-color="#C5D6E3"/></linearGradient><linearGradient id="k" x1="25.718" x2="55.743" y1="66.851" y2="55.375" gradientUnits="userSpaceOnUse"><stop stop-color="#187AC9"/><stop offset="1" stop-color="#C5D6E3"/></linearGradient><linearGradient id="l" x1="27.406" x2="30.488" y1="525.206" y2="529.381" gradientUnits="userSpaceOnUse"><stop stop-color="#EDECEC"/><stop offset="1" stop-color="#C4C4C4"/></linearGradient><linearGradient id="m" x1="27.406" x2="30.488" y1="525.206" y2="529.381" gradientUnits="userSpaceOnUse"><stop stop-color="#6D6D6D"/><stop offset="1" stop-color="#131111"/></linearGradient><linearGradient id="n" x1="40.683" x2="55.014" y1="537.718" y2="534.542" gradientUnits="userSpaceOnUse"><stop stop-color="#187AC9"/><stop offset="1" stop-color="#C5D6E3"/></linearGradient><linearGradient id="o" x1="40.683" x2="55.014" y1="537.718" y2="534.542" gradientUnits="userSpaceOnUse"><stop stop-color="#187AC9"/><stop offset="1" stop-color="#C5D6E3"/></linearGradient><linearGradient id="p" x1="141.817" x2="150.497" y1="460.968" y2="445.369" gradientUnits="userSpaceOnUse"><stop stop-color="#187AC9"/><stop offset="1" stop-color="#C5D6E3"/></linearGradient><linearGradient id="q" x1="259.566" x2="279.749" y1="527.299" y2="519.18" gradientUnits="userSpaceOnUse"><stop stop-color="#187AC9"/><stop offset="1" stop-color="#C5D6E3"/></linearGradient><filter id="g" width="91.396" height="95.966" x="106.312" y="227.441" color-interpolation-filters="sRGB" filterUnits="userSpaceOnUse"><feFlood flood-opacity="0" result="BackgroundImageFix"/><feBlend in="SourceGraphic" in2="BackgroundImageFix" result="shape"/><feColorMatrix in="SourceAlpha" result="hardAlpha" values="0 0 0 0 0 0 0 0 0 0 0 0 0 0 0 0 0 0 127 0"/><feOffset dy="-4.57"/><feGaussianBlur stdDeviation="4.341"/><feComposite in2="hardAlpha" k2="-1" k3="1" operator="arithmetic"/><feColorMatrix values="0 0 0 0 1 0 0 0 0 1 0 0 0 0 1 0 0 0 0.25 0"/><feBlend in2="shape" result="effect1_innerShadow_1_6536"/></filter><filter id="h" width="56.771" height="56.278" x="123.387" y="249.819" color-interpolation-filters="sRGB" filterUnits="userSpaceOnUse"><feFlood flood-opacity="0" result="BackgroundImageFix"/><feBlend in="SourceGraphic" in2="BackgroundImageFix" result="shape"/><feColorMatrix in="SourceAlpha" result="hardAlpha" values="0 0 0 0 0 0 0 0 0 0 0 0 0 0 0 0 0 0 127 0"/><feOffset dx="2.49" dy=".498"/><feGaussianBlur stdDeviation="1.369"/><feComposite in2="hardAlpha" k2="-1" k3="1" operator="arithmetic"/><feColorMatrix values="0 0 0 0 1 0 0 0 0 1 0 0 0 0 1 0 0 0 0.32 0"/><feBlend in2="shape" result="effect1_innerShadow_1_6536"/><feColorMatrix in="SourceAlpha" result="hardAlpha" values="0 0 0 0 0 0 0 0 0 0 0 0 0 0 0 0 0 0 127 0"/><feOffset dx="-2.49" dy=".498"/><feGaussianBlur stdDeviation="1.369"/><feComposite in2="hardAlpha" k2="-1" k3="1" operator="arithmetic"/><feColorMatrix values="0 0 0 0 1 0 0 0 0 1 0 0 0 0 1 0 0 0 0.32 0"/><feBlend in2="effect1_innerShadow_1_6536" result="effect2_innerShadow_1_6536"/></filter></defs></svg>