<svg xmlns="http://www.w3.org/2000/svg" width="961" height="377" fill="none"><path stroke="url(#a)" d="M921 32.918h-84.124c-6.628 0-12 5.373-12 12v38.378c0 6.628-5.373 12-12 12H639.515c-6.628 0-12 5.373-12 12v24.705c0 6.627-5.373 12-12 12h-121.96"/><path stroke="url(#b)" d="M510.939 159.719h183.316c6.628 0 12 5.372 12 12V187c0 6.627 5.373 12 12 12H794"/><path stroke="url(#c)" d="M905.662 336.628h-30.949c-6.628 0-12-5.372-12-12v-34.287c0-6.628-5.373-12-12-12H673.262c-6.628 0-12-5.373-12-12v-70.079c0-6.628-5.373-12-12-12H514.008"/><path stroke="url(#d)" d="M140.76 206.759h88.74a4 4 0 0 0 4-4V188a4 4 0 0 1 4-4h224.355"/><path stroke="url(#e)" d="M86.563 335.605v-48.333c0-6.627 5.372-12 12-12h188.699c6.628 0 12-5.372 12-12V229c0-6.627 5.373-12 12-12H463.9"/><path stroke="url(#f)" d="M42.59 30.871h75.943c6.627 0 12 5.373 12 12v45.537c0 6.627 5.373 12 12 12h168.248c6.627 0 12 5.372 12 12v27.091c0 6.627 5.373 12 12 12h130.141"/><g filter="url(#g)"><rect width="117.551" height="117.551" x="421" y="123" fill="#1E1E1E" rx="11.755"/></g><rect width="115.592" height="115.592" x="421.98" y="123.98" stroke="#fff" stroke-opacity=".12" stroke-width="1.959" rx="10.775"/><g filter="url(#h)"><path fill="#121212" d="M509.384 162.91a.64.64 0 0 0 0-1.107l-24.458-14.209a10.27 10.27 0 0 0-10.3 0l-24.453 14.209a.64.64 0 0 0 0 1.107l29.283 17.226a.644.644 0 0 0 .651 0l29.277-17.226Zm-61.953 4.357a.633.633 0 0 0-.642.001.638.638 0 0 0-.318.558v27.844a7.687 7.687 0 0 0 3.817 6.627l25.966 15.569a.642.642 0 0 0 .961-.554v-32.305a.642.642 0 0 0-.321-.554l-29.463-17.186Zm34.908 17.852v32.185a.64.64 0 0 0 .96.554l25.965-15.569a7.686 7.686 0 0 0 3.819-6.619v-27.844a.638.638 0 0 0-.961-.553l-29.463 17.294a.638.638 0 0 0-.32.552Z"/></g><path stroke="#fff" stroke-width=".274" d="m509.193 202.172.002-.001a7.55 7.55 0 0 0 3.751-6.502v-27.843m-3.753 34.346 3.803-34.666a.65.65 0 0 1 .087.32h-.137m-3.753 34.346-25.962 15.568h-.001a.502.502 0 0 1-.754-.436V185.12a.503.503 0 0 1 .252-.435l29.463-17.293-.069-.119.069.118v.001m-2.998 34.78 2.998-34.78m.755.434a.51.51 0 0 0-.504-.502.513.513 0 0 0-.251.068m.755.434-.755-.434m-2.876-4.601-.001.001-29.277 17.226a.508.508 0 0 1-.511 0l-29.284-17.226v-.001a.505.505 0 0 1 0-.869l24.452-14.21a10.133 10.133 0 0 1 10.164 0l24.457 14.21a.505.505 0 0 1 0 .869Zm-62.707 5.035v-.001a.498.498 0 0 1 .25-.439.51.51 0 0 1 .505-.001v.001l29.462 17.185.001.001a.5.5 0 0 1 .252.435v32.305a.51.51 0 0 1-.252.436.508.508 0 0 1-.503 0l-25.964-15.568-.002-.001a7.554 7.554 0 0 1-3.749-6.509v-27.844Z"/><rect width="78.367" height="78.367" fill="#1E1E1E" rx="11.755"/><rect width="76.408" height="76.408" x=".98" y=".98" stroke="#fff" stroke-opacity=".12" stroke-width="1.959" rx="10.775"/><path fill="url(#i)" d="M68 33.033C68 25.839 62.176 20 55 20s-13 5.839-13 13.033c0 6.307 4.472 11.56 10.4 12.771v-8.862h-2.6v-3.91h2.6v-3.258c0-2.515 2.041-4.561 4.55-4.561h3.25v3.91h-2.6c-.715 0-1.3.586-1.3 1.303v2.607h3.9v3.91h-3.9V46c6.565-.652 11.7-6.203 11.7-12.967Z"/><path fill="url(#j)" d="M24.336 32c1.463.004 2.205.012 2.846.03l.252.009c.291.01.579.023.926.039 1.383.065 2.327.283 3.155.604.858.33 1.58.778 2.303 1.5a6.382 6.382 0 0 1 1.499 2.303c.321.828.54 1.772.604 3.156.016.346.029.633.04.926l.007.252c.02.64.027 1.382.03 2.844l.001.97v1.703c.004.948-.006 1.897-.03 2.844l-.007.253c-.01.292-.024.58-.04.925-.064 1.385-.285 2.327-.605 3.157a6.346 6.346 0 0 1-1.499 2.303 6.389 6.389 0 0 1-2.303 1.499c-.828.321-1.772.54-3.155.604-.309.015-.617.028-.926.04l-.252.007c-.64.018-1.383.027-2.846.03l-.97.001h-1.7a101.86 101.86 0 0 1-2.846-.03l-.253-.007a81.606 81.606 0 0 1-.925-.04c-1.383-.066-2.327-.284-3.156-.605a6.356 6.356 0 0 1-2.303-1.499 6.375 6.375 0 0 1-1.5-2.303c-.32-.829-.54-1.772-.604-3.157a102.11 102.11 0 0 1-.04-.925l-.006-.253c-.024-.947-.035-1.896-.032-2.844v-2.673c-.004-.948.006-1.896.028-2.844l.01-.252c.01-.293.023-.58.038-.926.065-1.384.284-2.327.605-3.156a6.345 6.345 0 0 1 1.503-2.304 6.368 6.368 0 0 1 2.3-1.498c.83-.322 1.772-.54 3.157-.605.346-.016.634-.029.925-.039l.253-.008c.947-.023 1.896-.033 2.844-.03L24.336 32ZM23 38.5a6.5 6.5 0 1 0 0 13 6.5 6.5 0 0 0 0-13Zm0 2.6A3.9 3.9 0 1 1 23 48.899a3.9 3.9 0 0 1 .002-7.8m6.825-4.55a1.625 1.625 0 1 0 0 3.251 1.625 1.625 0 0 0 0-3.25Z"/><rect width="78.367" height="78.367" x="39.184" y="291.918" fill="#1E1E1E" rx="11.755"/><rect width="76.408" height="76.408" x="40.163" y="292.898" stroke="#fff" stroke-opacity=".12" stroke-width="1.959" rx="10.775"/><path fill="#121212" d="M52 345.105h51v5.368H52z"/><path fill="url(#k)" d="M64.527 312h34v26.842H75.712L64.527 312Z"/><path stroke="#fff" stroke-linecap="round" stroke-width="2.684" d="M57.368 340.631V312h41.158v31.763M84.21 344.658H103v5.816H52v-5.816h19.237"/><rect width="62.694" height="62.694" x="123.428" y="168.488" fill="#1E1E1E" rx="7.837"/><rect width="60.735" height="60.735" x="124.407" y="169.468" stroke="#fff" stroke-opacity=".12" stroke-width="1.959" rx="6.857"/><path fill="#fff" fill-rule="evenodd" d="M145.596 179a3.596 3.596 0 0 0-3.596 3.596v34.757a3.596 3.596 0 0 0 3.596 3.596h18.277a3.596 3.596 0 0 0 3.596-3.596v-34.757a3.596 3.596 0 0 0-3.596-3.596h-18.277Zm19.776 4.794h-21.274v30.862h21.274v-30.862Zm-14.981-2.097c0-.497.402-.899.899-.899h6.891a.898.898 0 1 1 0 1.797h-6.891a.898.898 0 0 1-.899-.898Zm4.493 37.753a1.798 1.798 0 1 0 0-3.596 1.798 1.798 0 0 0 0 3.596Z" clip-rule="evenodd"/><rect width="78.367" height="78.367" x="882" y="298" fill="#1E1E1E" rx="11.755"/><rect width="76.408" height="76.408" x="882.98" y="298.98" stroke="#fff" stroke-opacity=".12" stroke-width="1.959" rx="10.775"/><rect width="43.742" height="28.474" x="908.955" y="325.041" fill="#131111" rx="3.714"/><rect width="8.253" height="5.365" x="912.67" y="333.294" fill="url(#l)" rx="1.238"/><rect width="8.253" height="5.365" x="912.67" y="333.294" fill="url(#m)" rx="1.238"/><path fill="url(#n)" d="M945.484 329.168v13.381a.142.142 0 0 1-.143.141.143.143 0 0 1-.12-.072l-7.523-13.029a.862.862 0 0 0-.745-.421h-3.237v16.007h8.012l-1.094-1.611a2.093 2.093 0 0 0-.756-.673 2.125 2.125 0 0 0-.99-.243h-2.082v-9.19c0-.012.003-.024.008-.036a.095.095 0 0 1 .021-.031.106.106 0 0 1 .031-.021.121.121 0 0 1 .037-.007.107.107 0 0 1 .049.014c.015.008.027.02.035.034l7.606 13.028a.851.851 0 0 0 .743.42h3.236v-17.691h-3.088Z"/><path fill="url(#o)" d="M943.441 349.388h-6.873c-.393 0-.778-.108-1.111-.312a2.068 2.068 0 0 1-.774-.843L934 346.86h6.873c.392 0 .778.108 1.111.313.333.204.601.496.774.842l.683 1.373Z"/><path fill="#fff" d="M892.808 363.655a2.809 2.809 0 0 1-2.808-2.809v-47.038a2.808 2.808 0 0 1 2.808-2.808h32.295a2.808 2.808 0 0 1 2.808 2.808v47.038a2.809 2.809 0 0 1-2.808 2.809h-32.295Z"/><rect width="13.339" height="29.486" x="894.211" y="329.956" fill="#505050" rx="2.808" transform="rotate(-90 894.211 329.956)"/><rect width="6.319" height="8.425" x="894.211" y="358.74" fill="#2C2A2A" rx="1.404" transform="rotate(-90 894.211 358.74)"/><rect width="6.319" height="8.425" x="894.211" y="350.315" fill="#2C2A2A" rx="1.404" transform="rotate(-90 894.211 350.315)"/><rect width="6.319" height="8.425" x="894.211" y="341.891" fill="#2C2A2A" rx="1.404" transform="rotate(-90 894.211 341.891)"/><rect width="6.319" height="8.425" x="904.744" y="358.74" fill="#2C2A2A" rx="1.404" transform="rotate(-90 904.744 358.74)"/><rect width="6.319" height="8.425" x="904.744" y="350.315" fill="#2C2A2A" rx="1.404" transform="rotate(-90 904.744 350.315)"/><rect width="6.319" height="8.425" x="904.744" y="341.891" fill="#2C2A2A" rx="1.404" transform="rotate(-90 904.744 341.891)"/><rect width="6.319" height="8.425" x="915.271" y="358.74" fill="#2C2A2A" rx="1.404" transform="rotate(-90 915.271 358.74)"/><rect width="6.319" height="8.425" x="915.271" y="350.315" fill="#2C2A2A" rx="1.404" transform="rotate(-90 915.271 350.315)"/><rect width="6.319" height="8.425" x="915.271" y="341.891" fill="#2C2A2A" rx="1.404" transform="rotate(-90 915.271 341.891)"/><rect width="62.694" height="62.694" x="773.877" y="168.488" fill="#1E1E1E" rx="7.837"/><rect width="60.735" height="60.735" x="774.857" y="169.468" stroke="#fff" stroke-opacity=".12" stroke-width="1.959" rx="6.857"/><path fill="#fff" fill-rule="evenodd" d="M782 188.103a3.103 3.103 0 0 1 3.103-3.103h32.424a3.103 3.103 0 0 1 3.103 3.103v21.719a3.103 3.103 0 0 1-3.103 3.103h-32.424a3.103 3.103 0 0 1-3.103-3.103v-15.979h38.629v-4.654H782v-1.086Zm18.151 7.601h-14.428v1.397h14.428v-1.397Z" clip-rule="evenodd"/><path fill="url(#p)" fill-rule="evenodd" d="M809.498 204.184a3.543 3.543 0 0 0-1.299 4.844 3.552 3.552 0 0 0 4.847 1.298l2.522-1.454a.819.819 0 0 1 .819 1.417l-2.522 1.455a5.188 5.188 0 0 1-7.084-1.897 5.18 5.18 0 0 1 1.898-7.08l2.521-1.455a.82.82 0 0 1 .819 1.418l-2.521 1.454Zm5.185-3.936a.818.818 0 0 1 .3-1.118l2.521-1.455a5.19 5.19 0 0 1 7.085 1.897 5.18 5.18 0 0 1-1.898 7.08l-2.522 1.455a.82.82 0 0 1-.819-1.418l2.522-1.454a3.55 3.55 0 0 0 1.299-4.844 3.552 3.552 0 0 0-4.848-1.298l-2.521 1.454a.82.82 0 0 1-1.119-.299Zm-3.36 6.978a.818.818 0 0 1 .3-1.118l7.384-4.26a.819.819 0 0 1 .819 1.417l-7.384 4.261a.82.82 0 0 1-1.119-.3Z" clip-rule="evenodd"/><defs><linearGradient id="a" x1="493.555" x2="730.529" y1="144.001" y2="-131.135" gradientUnits="userSpaceOnUse"><stop stop-color="#187AC9"/><stop offset="1" stop-color="#C5D6E3"/></linearGradient><linearGradient id="b" x1="510.939" x2="575.273" y1="199" y2="59.121" gradientUnits="userSpaceOnUse"><stop stop-color="#187AC9"/><stop offset="1" stop-color="#C5D6E3"/></linearGradient><linearGradient id="c" x1="514.008" x2="832.347" y1="336.628" y2="89.732" gradientUnits="userSpaceOnUse"><stop stop-color="#187AC9"/><stop offset="1" stop-color="#C5D6E3"/></linearGradient><linearGradient id="d" x1="140.76" x2="162.618" y1="206.759" y2="113.707" gradientUnits="userSpaceOnUse"><stop stop-color="#187AC9"/><stop offset="1" stop-color="#C5D6E3"/></linearGradient><linearGradient id="e" x1="86.563" x2="342.197" y1="335.605" y2="90.216" gradientUnits="userSpaceOnUse"><stop stop-color="#187AC9"/><stop offset="1" stop-color="#C5D6E3"/></linearGradient><linearGradient id="f" x1="42.59" x2="302.41" y1="151.499" y2="-122.968" gradientUnits="userSpaceOnUse"><stop stop-color="#187AC9"/><stop offset="1" stop-color="#C5D6E3"/></linearGradient><linearGradient id="i" x1="42" x2="73.021" y1="46" y2="36.64" gradientUnits="userSpaceOnUse"><stop stop-color="#187AC9"/><stop offset="1" stop-color="#C5D6E3"/></linearGradient><linearGradient id="j" x1="10" x2="41.021" y1="58" y2="48.64" gradientUnits="userSpaceOnUse"><stop stop-color="#187AC9"/><stop offset="1" stop-color="#C5D6E3"/></linearGradient><linearGradient id="k" x1="64.527" x2="103.145" y1="338.842" y2="324.083" gradientUnits="userSpaceOnUse"><stop stop-color="#187AC9"/><stop offset="1" stop-color="#C5D6E3"/></linearGradient><linearGradient id="l" x1="916.641" x2="920.604" y1="333.294" y2="338.665" gradientUnits="userSpaceOnUse"><stop stop-color="#EDECEC"/><stop offset="1" stop-color="#C4C4C4"/></linearGradient><linearGradient id="m" x1="916.641" x2="920.604" y1="333.294" y2="338.665" gradientUnits="userSpaceOnUse"><stop stop-color="#6D6D6D"/><stop offset="1" stop-color="#131111"/></linearGradient><linearGradient id="n" x1="933.716" x2="952.149" y1="349.388" y2="345.302" gradientUnits="userSpaceOnUse"><stop stop-color="#187AC9"/><stop offset="1" stop-color="#C5D6E3"/></linearGradient><linearGradient id="o" x1="933.716" x2="952.149" y1="349.388" y2="345.302" gradientUnits="userSpaceOnUse"><stop stop-color="#187AC9"/><stop offset="1" stop-color="#C5D6E3"/></linearGradient><linearGradient id="p" x1="809.374" x2="820.539" y1="214.335" y2="194.273" gradientUnits="userSpaceOnUse"><stop stop-color="#187AC9"/><stop offset="1" stop-color="#C5D6E3"/></linearGradient><filter id="g" width="117.551" height="123.429" x="421" y="117.122" color-interpolation-filters="sRGB" filterUnits="userSpaceOnUse"><feFlood flood-opacity="0" result="BackgroundImageFix"/><feBlend in="SourceGraphic" in2="BackgroundImageFix" result="shape"/><feColorMatrix in="SourceAlpha" result="hardAlpha" values="0 0 0 0 0 0 0 0 0 0 0 0 0 0 0 0 0 0 127 0"/><feOffset dy="-5.878"/><feGaussianBlur stdDeviation="5.584"/><feComposite in2="hardAlpha" k2="-1" k3="1" operator="arithmetic"/><feColorMatrix values="0 0 0 0 1 0 0 0 0 1 0 0 0 0 1 0 0 0 0.25 0"/><feBlend in2="shape" result="effect1_innerShadow_1_5517"/></filter><filter id="h" width="73.017" height="72.384" x="443.268" y="146.209" color-interpolation-filters="sRGB" filterUnits="userSpaceOnUse"><feFlood flood-opacity="0" result="BackgroundImageFix"/><feBlend in="SourceGraphic" in2="BackgroundImageFix" result="shape"/><feColorMatrix in="SourceAlpha" result="hardAlpha" values="0 0 0 0 0 0 0 0 0 0 0 0 0 0 0 0 0 0 127 0"/><feOffset dx="3.203" dy=".64"/><feGaussianBlur stdDeviation="1.761"/><feComposite in2="hardAlpha" k2="-1" k3="1" operator="arithmetic"/><feColorMatrix values="0 0 0 0 1 0 0 0 0 1 0 0 0 0 1 0 0 0 0.32 0"/><feBlend in2="shape" result="effect1_innerShadow_1_5517"/><feColorMatrix in="SourceAlpha" result="hardAlpha" values="0 0 0 0 0 0 0 0 0 0 0 0 0 0 0 0 0 0 127 0"/><feOffset dx="-3.203" dy=".64"/><feGaussianBlur stdDeviation="1.761"/><feComposite in2="hardAlpha" k2="-1" k3="1" operator="arithmetic"/><feColorMatrix values="0 0 0 0 1 0 0 0 0 1 0 0 0 0 1 0 0 0 0.32 0"/><feBlend in2="effect1_innerShadow_1_5517" result="effect2_innerShadow_1_5517"/></filter></defs></svg>