<svg xmlns="http://www.w3.org/2000/svg" width="37" height="50" fill="none"><path fill="#fff" fill-rule="evenodd" d="M2.968 50a2.784 2.784 0 0 1-2.784-2.784V2.784A2.784 2.784 0 0 1 2.968 0h30.576a2.784 2.784 0 0 1 2.784 2.784v19.022a3.312 3.312 0 0 0-1.863 1.179c-.196.25-.088.602.191.752l1.672.9v2.307l-2.596-1.437a.574.574 0 0 0-.765.197c-3.052 4.877-8.732 14.056-9.146 15.152-.333.883-.014 3.089.32 4.733a1.078 1.078 0 0 0 1.444.794c1.363-.513 3.115-1.262 3.847-1.879.72-.607 4.077-6.38 6.896-11.377V47.216A2.784 2.784 0 0 1 33.544 50H2.968ZM4.512 7.357c0-.717.581-1.298 1.298-1.298h23.37a1.298 1.298 0 1 1 0 2.596H5.81a1.298 1.298 0 0 1-1.298-1.298Zm1.298 3.895a1.298 1.298 0 1 0 0 2.597h15.58a1.298 1.298 0 0 0 0-2.597H5.81Zm-1.298 6.492c0-.717.581-1.299 1.298-1.299h15.58a1.298 1.298 0 0 1 0 2.597H5.81a1.298 1.298 0 0 1-1.298-1.298Zm7.798 7.426c-2.72-.418-4.832 1.299-6.137 3.074-1.335 1.816-2.202 4.154-2.413 6.096-.192 1.778-.157 3.932.391 5.832.544 1.885 1.712 3.869 4.024 4.566 1.151.347 2.21.245 3.126-.2.692-.335 1.22-.826 1.616-1.277.044.22.1.442.17.654.197.593.69 1.622 1.91 1.935.8.205 1.518.073 2.108-.23.246-.126.463-.28.641-.425l.087.16.017.03c.11.203.24.44.378.674.28.473.68 1.087 1.248 1.57.617.524 1.462.916 2.506.818a1.723 1.723 0 0 0-.264-3.435l-.01-.009c-.115-.098-.28-.303-.512-.696a20.105 20.105 0 0 1-.331-.591l-.007-.012c-.114-.21-.247-.453-.385-.682-.224-.371-.672-1.085-1.419-1.467a2.497 2.497 0 0 0-1.183-.285 2.45 2.45 0 0 0-1.083.276 3.32 3.32 0 0 0-.585.394l-.011-.096-.01-.084-.012-.114c-.047-.427-.114-1.05-.275-1.566a2.845 2.845 0 0 0-.608-1.095 2.212 2.212 0 0 0-1.64-.717c-.645 0-1.146.265-1.477.513-.32.238-.569.524-.746.746-.168.21-.334.444-.473.64l-.032.046c-.157.22-.295.413-.438.591-.296.37-.514.552-.684.634-.105.051-.269.108-.628 0-.71-.214-1.318-.871-1.707-2.22-.385-1.334-.438-3.007-.276-4.507.145-1.338.789-3.1 1.764-4.426 1.005-1.367 2.003-1.837 2.837-1.709.807.125 1.241.538 1.522 1.058a3.57 3.57 0 0 1 .394 1.718 1.723 1.723 0 1 0 3.443.152c.04-.911-.131-2.264-.806-3.51-.71-1.315-1.994-2.51-4.03-2.824Zm.293 15.93a.08.08 0 0 0-.003-.009l.003.008Zm3.775 1.786.005.01-.001-.003a.22.22 0 0 0-.004-.007Z" clip-rule="evenodd"/></svg>