<svg xmlns="http://www.w3.org/2000/svg" width="126" height="31" fill="none"><path fill="#121212" d="M51.883 20.86c-2.417 2.845-5.224 3.976-8.07 3.976-5.381 0-9.67-3.86-9.67-8.928 0-5.03 4.094-8.929 9.474-8.929 2.847 0 5.654 1.13 8.071 3.977l-3.587 2.534c-1.286-1.832-2.768-2.573-4.483-2.573-2.769 0-5.03 2.223-5.03 4.99 0 2.808 2.456 4.991 5.225 4.991 1.715 0 3.236-.74 4.561-2.417l3.51 2.379ZM53.87 0h4.485v24.486H53.87V0ZM70.206 6.98c5.38 0 9.67 3.898 9.67 8.928 0 5.03-4.29 8.928-9.67 8.928s-9.708-3.898-9.708-8.928c0-5.03 4.328-8.929 9.708-8.929Zm0 14.074c2.807 0 5.38-2.261 5.38-5.146s-2.573-5.147-5.38-5.147c-2.846 0-5.38 2.262-5.38 5.147 0 2.885 2.534 5.146 5.38 5.146ZM79.164 7.33h5.264l4.25 9.163 4.6-9.163h4.875L88.678 25.54 79.164 7.33ZM113.703 22.536c-1.715 1.443-4.094 2.3-6.588 2.3-5.381 0-9.71-3.898-9.71-8.928 0-5.03 3.939-8.929 9.319-8.929 5.381 0 8.889 3.9 8.889 8.929v1.286h-13.724c.624 2.262 2.808 3.86 5.226 3.86 1.481 0 2.768-.467 3.937-1.676l2.651 3.158Zm-2.807-9.007c-.663-1.56-2.144-2.768-4.172-2.768-1.988 0-3.625 1.092-4.444 2.768h8.616ZM117.812 14.855c0-4.094 3.12-7.525 8.188-7.525v4.016c-2.183 0-3.742 1.326-3.742 4.055v9.085h-4.446v-9.63ZM13.884 8.036A6.945 6.945 0 0 0 6.94 1.094 6.94 6.94 0 0 0 0 8.032a6.947 6.947 0 0 0 6.942 6.946h6.942V8.036ZM15.831 8.036a6.945 6.945 0 0 1 6.944-6.942 6.94 6.94 0 0 1 6.94 6.938 6.947 6.947 0 0 1-6.942 6.946H15.83V8.036ZM15.831 23.867a6.942 6.942 0 1 0 6.942-6.942H15.83v6.942ZM13.884 23.867a6.942 6.942 0 1 1-6.942-6.942h6.942v6.942ZM6.94 28.852c2.755 0 4.997-2.235 4.997-4.982v-4.996h-4.99c-2.757 0-5 2.25-5 4.996 0 2.747 2.24 4.982 4.993 4.982Z"/></svg>