<svg xmlns="http://www.w3.org/2000/svg" width="126" height="25" fill="none"><path fill="#fff" d="M21.224 21.874V0h14.588v3.031H24.974V9.31h4.262a2.549 2.549 0 0 1 2.084 1.084l1.322 1.891h-7.668v6.563h10.838v3.03l-14.588-.003ZM58.728 21.874V0h14.587v3.031H62.478V9.31h4.256a2.548 2.548 0 0 1 2.085 1.084l1.322 1.891h-7.663v6.563h10.837v3.03l-14.587-.003ZM45.376 21.874V3.031H38.94V0h16.627v3.031h-6.44v18.843h-3.75ZM113.309 0h4.218a1.038 1.038 0 0 1 .988.713l7.044 21.161h-3.943l-5.65-17.708h-1.041l-5.715 17.708h-3.97L112.315.711a1.042 1.042 0 0 1 .994-.711ZM83.49 21.163 76.422 0h3.968l5.718 17.708h1.041L92.8 0h3.938l-7.048 21.161a1.04 1.04 0 0 1-.987.713h-4.219a1.044 1.044 0 0 1-.993-.711ZM99.293 21.874V0h3.139v21.874h-3.139ZM14.281 0v16.544a.174.174 0 0 1-.174.175.178.178 0 0 1-.146-.089L4.832.52A1.04 1.04 0 0 0 3.927 0H0v19.791h9.722L8.394 17.8a2.546 2.546 0 0 0-2.117-1.133H3.75V5.305a.118.118 0 0 1 .118-.118.12.12 0 0 1 .102.06l9.229 16.108a1.042 1.042 0 0 0 .902.52h3.927V0h-3.747ZM11.802 25h-8.34a2.547 2.547 0 0 1-2.289-1.428l-.829-1.698h8.34a2.547 2.547 0 0 1 2.289 1.428L11.802 25Z"/><path fill="#fff" d="M119.564 25h-8.333l1.069-2.495a1.048 1.048 0 0 1 .957-.631h4.326a1.044 1.044 0 0 1 .965.647L119.564 25Z"/></svg>