<svg xmlns="http://www.w3.org/2000/svg" width="127" height="25" fill="none"><path fill="#121212" d="M21.907 21.874V0h14.588v3.031H25.657V9.31h4.262a2.548 2.548 0 0 1 2.085 1.084l1.322 1.891h-7.669v6.563h10.838v3.03l-14.588-.003ZM59.412 21.874V0H74v3.031H63.162V9.31h4.256a2.548 2.548 0 0 1 2.085 1.084l1.322 1.891h-7.663v6.563h10.837v3.03l-14.587-.003ZM46.06 21.874V3.031h-6.437V0H56.25v3.031h-6.44v18.843h-3.75ZM113.992 0h4.219a1.04 1.04 0 0 1 .987.713l7.045 21.161H122.3l-5.65-17.708h-1.042l-5.715 17.708h-3.969L112.999.711a1.04 1.04 0 0 1 .993-.711ZM84.173 21.163 77.106 0h3.968l5.718 17.708h1.041L93.483 0h3.937l-7.047 21.161a1.04 1.04 0 0 1-.988.713h-4.218a1.044 1.044 0 0 1-.994-.711ZM99.978 21.874V0h3.139v21.874h-3.14ZM14.965 0v16.544a.174.174 0 0 1-.175.175.177.177 0 0 1-.145-.089L5.515.52A1.04 1.04 0 0 0 4.612 0H.684v19.791h9.722L9.078 17.8a2.546 2.546 0 0 0-2.118-1.133H4.434V5.305a.118.118 0 0 1 .117-.118.12.12 0 0 1 .102.06l9.23 16.108a1.042 1.042 0 0 0 .901.52h3.928V0h-3.747ZM12.485 25h-8.34a2.548 2.548 0 0 1-2.289-1.428l-.829-1.698h8.34a2.548 2.548 0 0 1 2.289 1.429l.83 1.697ZM120.248 25h-8.333l1.069-2.495a1.047 1.047 0 0 1 .957-.63h4.326a1.045 1.045 0 0 1 .965.646l1.016 2.48Z"/></svg>