<svg xmlns="http://www.w3.org/2000/svg" width="69" height="21" fill="none"><path fill="#959595" d="M50.159.86A14.422 14.422 0 0 0 45.154 0c-5.52 0-9.417 2.761-9.445 6.725-.035 2.912 2.77 4.553 4.891 5.526 2.177 1 2.905 1.63 2.898 2.524-.014 1.36-1.739 1.977-3.343 1.977-2.204 0-3.408-.305-5.26-1.069l-.687-.318-.782 4.563c1.341.555 3.76 1.03 6.257 1.072 5.867 0 9.703-2.744 9.748-6.961.048-2.326-1.47-4.084-4.664-5.536-1.942-.942-3.146-1.572-3.146-2.528 0-.846 1.032-1.75 3.188-1.75 1.435-.035 2.86.232 4.184.784l.517.23.783-4.41-.134.031ZM64.48.37H60.17c-1.341 0-2.352.367-2.939 1.69l-8.292 18.656h5.867l1.173-3.06 7.161.007c.17.716.687 3.053.687 3.053H69L64.481.37ZM27.771.2h5.592l-3.497 20.356H24.28L27.77.192V.2Zm-14.194 11.22.58 2.825L19.62.37h5.922l-8.8 20.318h-5.908L6.005 3.484a1.162 1.162 0 0 0-.513-.681A24.073 24.073 0 0 0 0 .785L.076.357h9c1.22.048 2.204.428 2.531 1.723l1.967 9.348.003-.01Zm44.005 2.075 2.229-5.693c-.028.061.458-1.175.741-1.94l.383 1.758 1.294 5.872h-4.65l.003.003Z"/></svg>