<svg xmlns="http://www.w3.org/2000/svg" width="126" height="55" fill="none"><path fill="#121212" fill-rule="evenodd" d="M16.223 9.984C31.055-1.92 45.612-1.847 51.235 3.296a29.448 29.448 0 0 0-2.24.294c-4.307-3.847-15.42 1.522-29.21 12.293C5.41 27.116.683 36.968 4.563 41.802c3.88 4.833 16.131 1.877 29.918-9.879 9.548-8.142 14.941-16.024 16.063-21.705a26.998 26.998 0 0 1 3.414-1.06c.787 7.372-4.17 18.836-16.135 28.187C22.54 49.29 8.528 51.378 2.614 43.812-3.3 36.245.648 22.48 16.223 9.983Z" clip-rule="evenodd"/><path fill="#121212" fill-rule="evenodd" d="M28.287 16.325C43.917 3.98 59.15 3.28 63.887 9.767c4.738 6.485.237 21.663-14.682 33.876-13.77 11.27-27.093 13.47-33.659 7.776l-.096-.083a9.824 9.824 0 0 1-.257-.234l-.024-.024a7.662 7.662 0 0 1-.29-.289c.189-.016.376-.034.562-.055l.33-.038.362-.046.164-.022h.032l.097-.014.065-.01.033-.005.066-.01.032-.004.066-.01.033-.005.033-.005.163-.026.032-.006.033-.005c.161.11.328.211.5.303h.009c.081.044.164.086.248.126l.027.012c.078.037.157.072.238.105l.046.019c.074.03.15.06.226.087l.066.023c.072.024.145.048.218.07l.078.023c5.704 1.661 15.995-3.807 27.119-13.197C61.959 24.417 66.225 12.65 60.497 9.447 56.044 6.957 45.55 10.86 31.54 21.785c-10.23 7.98-16.194 15.793-17.102 21.668-.907.227-1.829.39-2.76.488-.94-7.692 4.455-18.024 16.603-27.621" clip-rule="evenodd"/><path fill="#121212" d="M75.287 49.811a9.846 9.846 0 0 0 2.672-.948 10.608 10.608 0 0 0 4.057-3.53 4.12 4.12 0 0 0-.11-3.815 5.826 5.826 0 0 0-3.947-1.915c-.165-.017-.261-.02-.261-.02l-2.411.02-12.417.11L57.017 54.8l6.198.046 2.101-4.867 8.847-.055a6.39 6.39 0 0 0 1.124-.112m-9.34-2.343 2.025-5.102s6.353.048 7.124.048h.192c2.7.074 1.844 2.806.868 3.656-.27.234-.56.444-.868.628a5.377 5.377 0 0 1-2.13.772l-7.21-.002ZM90.42 39.671l-1.294 1.158-11.166 9.96-2.671 2.383-1.81 1.616h6.208l2.578-3.033 6.861.033 3.123.016v3.032l6.497-.048-.096-15.161-8.23.044Zm1.775 9.645-3.069-.04-3.095-.04 3.095-2.99 2.116-2.04h.979l-.026 5.11ZM126 39.576h-7.936l-5.09 4.301-3.808-4.18h-7.215l6.854 7.556-9.018 7.558h7.736l4.649-3.9 3.527 3.94 7.375-.08-6.655-7.195 9.581-8Z"/></svg>