<svg xmlns="http://www.w3.org/2000/svg" width="68" height="53" fill="none"><path fill="#fff" fill-rule="evenodd" d="M1.985.852A1.985 1.985 0 0 0 0 2.836v36.345c0 1.096.889 1.985 1.985 1.985h51.798a1.985 1.985 0 0 0 1.985-1.985V2.836A1.985 1.985 0 0 0 53.783.852H1.985Zm4.015 10a2 2 0 1 0 0 4h24a2 2 0 0 0 0-4H6Zm-2 9a2 2 0 0 1 2-2h24a2 2 0 1 1 0 4H6a2 2 0 0 1-2-2ZM5.374 6.227a1.344 1.344 0 1 0 0-2.688 1.344 1.344 0 0 0 0 2.688Zm5.376-1.344a1.344 1.344 0 1 1-2.687 0 1.344 1.344 0 0 1 2.687 0Zm2.687 1.344a1.344 1.344 0 1 0 0-2.688 1.344 1.344 0 0 0 0 2.688Z" clip-rule="evenodd"/><path fill="url(#a)" d="M53.803 10.852v15.251H68L49.746 52.852V37.366H36l17.803-26.514Z"/><defs><linearGradient id="a" x1="36" x2="75.564" y1="52.852" y2="43.756" gradientUnits="userSpaceOnUse"><stop stop-color="#187AC9"/><stop offset="1" stop-color="#C5D6E3"/></linearGradient></defs></svg>