<svg width="56" height="55" viewBox="0 0 56 55" fill="none" xmlns="http://www.w3.org/2000/svg">
<path fill-rule="evenodd" clip-rule="evenodd" d="M3.92289 19.1516H4.48443V38.4293H1.49481C0.669249 38.4293 0 39.0933 0 39.9122C0 40.7312 0.669249 41.3951 1.49481 41.3951L19.7642 41.3951V38.4293H16.4429V19.1516H25.4118V26.9049C25.6568 26.8764 25.906 26.8617 26.1587 26.8617H28.4014V19.1516H34.3806V26.8617H37.3702V19.1516H37.9318C40.0983 19.1516 41.8547 17.4093 41.8547 15.26C41.8547 13.9314 41.1715 12.6946 40.0426 11.9798L23.3404 1.40208C21.8688 0.470141 19.9858 0.47014 18.5143 1.40208L1.81201 11.9798C0.683197 12.6946 0 13.9314 0 15.26C0 17.4093 1.75634 19.1516 3.92289 19.1516ZM37.3702 30.9309H34.3806V30.9311H37.3702V30.9309ZM28.4014 30.9309H26.1587C25.8991 30.9309 25.6494 30.9735 25.4163 31.0519C25.6493 30.9736 25.8988 30.9311 26.1582 30.9311H28.4014V30.9309ZM37.3702 38.2942V38.2944H34.3806V38.2942H37.3702ZM28.4014 38.2942V38.2944H25.4118V38.2942H28.4014ZM3.92289 16.1858H37.9318C38.4472 16.1858 38.865 15.7713 38.865 15.26C38.865 14.9439 38.7025 14.6497 38.4339 14.4796L21.7317 3.90191C21.2412 3.59127 20.6135 3.59127 20.123 3.90191L3.4207 14.4796C3.15215 14.6497 2.98962 14.9439 2.98962 15.26C2.98962 15.7713 3.40746 16.1858 3.92289 16.1858ZM7.47405 38.4293V19.1516H13.4533V38.4293H7.47405ZM17.9377 8.7713C17.1121 8.7713 16.4429 9.43521 16.4429 10.2542C16.4429 11.0732 17.1121 11.7371 17.9377 11.7371H23.9169C24.7425 11.7371 25.4118 11.0732 25.4118 10.2542C25.4118 9.43521 24.7425 8.7713 23.9169 8.7713H17.9377Z" fill="white"/>
<path d="M26.1583 30.9312C24.8741 30.9312 23.833 31.9722 23.833 33.2564V34.419H55.9991V33.2564C55.9991 31.9722 54.958 30.9312 53.6738 30.9312H26.1583Z" fill="url(#paint0_linear_1_5391)"/>
<path d="M55.9991 38.2945H23.833V51.8585C23.833 53.1427 24.8741 54.1837 26.1583 54.1837H53.6738C54.958 54.1837 55.9991 53.1427 55.9991 51.8585V38.2945Z" fill="url(#paint1_linear_1_5391)"/>
<defs>
<linearGradient id="paint0_linear_1_5391" x1="23.833" y1="54.1837" x2="59.4922" y2="39.3001" gradientUnits="userSpaceOnUse">
<stop stop-color="#187AC9"/>
<stop offset="1" stop-color="#C5D6E3"/>
</linearGradient>
<linearGradient id="paint1_linear_1_5391" x1="23.833" y1="54.1837" x2="59.4922" y2="39.3001" gradientUnits="userSpaceOnUse">
<stop stop-color="#187AC9"/>
<stop offset="1" stop-color="#C5D6E3"/>
</linearGradient>
</defs>
</svg>
