<svg xmlns="http://www.w3.org/2000/svg" width="41" height="56" fill="none"><circle cx="19.724" cy="14.805" r="2.064" fill="#fff" transform="rotate(90 19.724 14.805)"/><path fill="#fff" fill-rule="evenodd" d="M11.6 5.518c0-.235-.023-.465-.068-.687h17.335a3.44 3.44 0 0 0 4.059 4.059V31.3h4.127V3.455A2.752 2.752 0 0 0 34.301.703H6.785a2.752 2.752 0 0 0-2.751 2.752V31.3H8.16V8.958c1.9 0 3.44-1.54 3.44-3.44Z" clip-rule="evenodd"/><path fill="#fff" fill-rule="evenodd" d="M13.167 31.301h3.174a4.197 4.197 0 0 1-.307-1.082h-1.06v-1.764h1.084a3.74 3.74 0 0 1 .287-.915 2.78 2.78 0 0 1 1.048-1.21c.453-.284.99-.426 1.612-.426v1.842c-.53 0-.936.138-1.22.413-.285.283-.427.7-.427 1.249 0 .438.085.786.254 1.043.176.267.426.4.748.4.23 0 .415-.086.553-.258.138-.172.25-.403.334-.695.092-.284.177-.597.253-.94.077-.336.17-.675.277-1.018a4.7 4.7 0 0 1 .414-.954c.17-.283.392-.51.668-.683.284-.171.641-.257 1.071-.257.446 0 .845.133 1.198.4.36.274.645.656.852 1.146.111.263.193.55.244.863h1.069v1.765h-1.084a4.057 4.057 0 0 1-.37 1.081h3.95a7.567 7.567 0 1 0-14.623 0Zm8.487 0v-.437c.276-.009.507-.09.69-.245.185-.146.323-.335.415-.567.1-.223.15-.468.15-.734 0-.387-.08-.709-.242-.966a.776.776 0 0 0-.69-.374.62.62 0 0 0-.519.258c-.13.171-.238.4-.322.683-.077.291-.154.61-.23.953-.07.343-.158.683-.265 1.018-.042.142-.09.28-.146.411h1.159Z" clip-rule="evenodd"/><rect width="40.348" height="9.683" y="31.301" fill="url(#a)" rx=".807"/><path fill="#fff" d="M20.98 43.406a.807.807 0 1 0-1.613 0h1.614Zm-1.377 11.868a.807.807 0 0 0 1.141 0l5.136-5.136a.807.807 0 0 0-1.141-1.14l-4.565 4.564-4.565-4.565a.807.807 0 0 0-1.141 1.141l5.135 5.136Zm-.236-11.868v11.297h1.614V43.406h-1.614Z"/><defs><linearGradient id="a" x1="0" x2="20.353" y1="40.985" y2="15.397" gradientUnits="userSpaceOnUse"><stop stop-color="#187AC9"/><stop offset="1" stop-color="#C5D6E3"/></linearGradient></defs></svg>